<?xml version="1.0" standalone="no"?>
<!DOCTYPE svg PUBLIC "-//W3C//DTD SVG 20010904//EN"
 "http://www.w3.org/TR/2001/REC-SVG-20010904/DTD/svg10.dtd">
<svg version="1.0" xmlns="http://www.w3.org/2000/svg"
 width="823.000000pt" height="850.000000pt" viewBox="0 0 823.000000 850.000000"
 preserveAspectRatio="xMidYMid meet">

<g transform="translate(0.000000,850.000000) scale(0.100000,-0.100000)"
fill="#000000" stroke="none">
<path d="M3914 7280 c-1092 -106 -2034 -802 -2453 -1814 -78 -187 -165 -498
-186 -663 -6 -49 -5 -53 14 -53 12 0 21 1 21 3 0 39 61 315 95 426 334 1114
1306 1923 2465 2052 152 17 465 17 615 0 1165 -130 2135 -935 2470 -2052 34
-111 95 -387 95 -426 0 -2 9 -3 21 -3 19 0 20 4 14 53 -11 86 -64 312 -102
431 -237 748 -770 1378 -1467 1732 -302 154 -607 250 -951 300 -130 18 -517
27 -651 14z"/>
<path d="M3940 6490 c-23 -7 -22 -8 10 -9 19 0 42 4 50 9 12 8 10 10 -10 9
-14 -1 -36 -5 -50 -9z"/>
<path d="M4240 6490 c118 -3 220 -9 227 -13 6 -4 14 -3 17 1 8 14 -112 22
-294 20 l-165 -2 215 -6z"/>
<path d="M3820 6476 c-36 -5 -58 -11 -50 -13 22 -5 137 11 125 18 -5 3 -39 1
-75 -5z"/>
<path d="M4515 6470 c27 -12 35 -12 35 0 0 6 -12 10 -27 9 -25 0 -26 -1 -8 -9z"/>
<path d="M4590 6459 c0 -5 12 -11 28 -14 89 -19 266 -70 294 -86 25 -13 32
-11 19 5 -7 8 -28 17 -49 21 -20 4 -55 15 -77 25 -22 10 -57 21 -79 24 -21 4
-42 8 -46 11 -17 10 -90 22 -90 14z"/>
<path d="M3650 6441 c-107 -29 -325 -109 -318 -117 4 -3 168 52 223 75 30 12
157 44 182 45 11 1 19 4 16 9 -6 10 -29 8 -103 -12z"/>
<path d="M4960 6343 c8 -3 31 -13 52 -23 20 -10 39 -16 42 -13 3 4 6 1 6 -6 0
-7 5 -9 12 -5 13 8 -84 55 -111 53 -13 0 -14 -1 -1 -6z"/>
<path d="M3255 6292 c-27 -15 -52 -30 -53 -35 -2 -4 -9 -4 -14 -1 -7 4 -8 2
-4 -4 4 -7 28 1 69 25 71 41 74 43 61 43 -5 0 -31 -13 -59 -28z"/>
<path d="M5085 6290 c-3 -5 -1 -10 4 -10 6 0 11 5 11 10 0 6 -2 10 -4 10 -3 0
-8 -4 -11 -10z"/>
<path d="M5127 6271 c12 -12 24 -21 27 -21 2 0 35 -18 74 -40 85 -49 102 -52
32 -5 -29 19 -58 35 -66 35 -8 0 -14 4 -14 8 0 5 -17 16 -37 26 l-38 18 22
-21z"/>
<path d="M3160 6240 c0 -6 -4 -9 -9 -6 -5 3 -12 -1 -15 -10 -3 -8 -10 -13 -15
-10 -5 3 -27 -8 -50 -24 -22 -17 -44 -30 -47 -30 -6 0 -104 -69 -114 -80 -3
-3 -20 -16 -38 -29 -18 -13 -31 -25 -29 -28 3 -2 33 17 68 42 77 55 202 139
209 140 3 1 18 8 34 16 18 10 25 19 17 23 -6 4 -11 2 -11 -4z"/>
<path d="M5354 6134 c22 -15 50 -36 63 -48 14 -12 27 -19 30 -18 3 2 10 -2 14
-10 7 -10 9 -10 9 0 0 7 -11 17 -25 22 -14 5 -25 13 -25 17 0 9 -82 63 -96 63
-5 0 9 -12 30 -26z"/>
<path d="M5480 6039 c0 -5 5 -7 10 -4 6 3 10 8 10 11 0 2 -4 4 -10 4 -5 0 -10
-5 -10 -11z"/>
<path d="M5523 6005 c15 -14 33 -25 40 -25 6 0 -4 11 -23 25 -43 32 -53 32
-17 0z"/>
<path d="M2764 5958 c-52 -48 -85 -82 -169 -172 -14 -15 -25 -31 -25 -37 0 -5
30 24 68 65 37 40 97 101 135 135 37 33 63 61 58 61 -5 0 -35 -24 -67 -52z"/>
<path d="M5600 5935 c18 -19 37 -32 42 -29 4 3 8 -2 8 -11 0 -9 5 -13 10 -10
6 3 10 0 10 -7 0 -8 17 -30 37 -49 20 -18 31 -25 23 -14 -8 11 -19 23 -25 27
-5 4 -7 8 -3 8 10 0 -51 65 -61 65 -5 0 -19 12 -31 28 -12 15 -27 27 -33 27
-6 0 4 -16 23 -35z"/>
<path d="M5751 5795 c-1 -13 19 -43 19 -30 1 6 8 -2 16 -17 8 -16 19 -28 25
-28 6 0 7 -5 3 -12 -4 -7 -3 -8 4 -4 7 4 12 1 12 -6 0 -7 13 -28 28 -45 36
-43 86 -116 87 -126 0 -4 7 -12 15 -17 8 -5 11 -10 7 -10 -4 0 5 -19 21 -42
16 -24 42 -71 57 -105 16 -34 32 -60 36 -57 9 5 -86 185 -103 196 -7 4 -8 8
-3 8 6 0 3 6 -6 13 -9 7 -16 16 -16 20 -2 25 -202 284 -202 262z"/>
<path d="M2526 5706 c-14 -19 -26 -39 -26 -44 0 -6 -7 -12 -15 -16 -8 -3 -15
-11 -15 -18 0 -6 -12 -25 -27 -40 -15 -15 -22 -28 -16 -28 13 0 53 52 53 69 0
6 4 11 8 11 10 0 75 91 69 96 -2 3 -16 -11 -31 -30z"/>
<path d="M2397 5518 c-26 -35 -47 -72 -47 -83 0 -6 51 66 76 107 14 22 -8 4
-29 -24z"/>
<path d="M2322 5400 c-6 -11 -12 -26 -12 -34 0 -8 -4 -16 -9 -18 -12 -4 -83
-159 -76 -166 9 -9 25 20 25 46 0 12 4 22 9 22 8 0 23 31 26 50 0 3 10 21 21
40 21 33 39 80 32 80 -2 0 -9 -9 -16 -20z"/>
<path d="M2917 5034 c-4 -207 -4 -381 -1 -385 3 -5 84 -9 180 -9 l174 0 0 385
0 385 -173 0 -174 0 -6 -376z"/>
<path d="M3590 5290 c0 -66 2 -120 5 -120 2 0 45 20 94 45 196 98 403 145 641
145 l120 0 0 -360 0 -360 180 0 180 0 0 361 0 362 158 -6 c249 -9 402 -44 605
-141 53 -25 98 -46 101 -46 3 0 6 54 6 120 l0 120 -1045 0 -1045 0 0 -120z"/>
<path d="M6101 5239 c9 -13 20 -39 23 -57 4 -17 12 -32 18 -32 6 0 8 -7 4 -15
-3 -8 -1 -15 4 -15 6 0 10 4 10 9 0 18 -49 119 -62 127 -8 5 -7 -1 3 -17z"/>
<path d="M2214 5158 c3 -10 2 -18 -3 -18 -5 0 -14 -21 -21 -47 -7 -27 -17 -53
-21 -58 -5 -6 -10 -31 -13 -55 l-6 -45 11 45 c6 25 15 49 20 55 5 5 9 16 9 25
0 8 9 31 19 51 14 25 16 40 9 50 -8 11 -9 10 -4 -3z"/>
<path d="M6161 5094 c0 -11 3 -14 6 -6 3 7 2 16 -1 19 -3 4 -6 -2 -5 -13z"/>
<path d="M6170 5054 c0 -8 5 -12 10 -9 6 4 8 11 5 16 -9 14 -15 11 -15 -7z"/>
<path d="M6180 5021 c0 -6 5 -13 10 -16 6 -3 10 1 10 9 0 9 -4 16 -10 16 -5 0
-10 -4 -10 -9z"/>
<path d="M6201 4979 c-2 -30 11 -79 21 -79 6 0 7 8 3 18 -4 9 -11 31 -15 47
-4 17 -8 23 -9 14z"/>
<path d="M2140 4928 c0 -3 -9 -41 -20 -84 -19 -75 -25 -123 -16 -113 8 8 46
192 41 197 -3 3 -5 3 -5 0z"/>
<path d="M6220 4875 c0 -8 4 -15 10 -15 5 0 7 7 4 15 -4 8 -8 15 -10 15 -2 0
-4 -7 -4 -15z"/>
<path d="M6236 4805 c10 -60 26 -90 19 -36 -3 24 -10 51 -16 60 -6 11 -7 4 -3
-24z"/>
<path d="M2543 4500 c-31 -12 -56 -55 -48 -80 8 -26 50 -48 106 -56 67 -9 109
-24 109 -39 0 -7 -7 -16 -16 -19 -29 -11 -121 -6 -163 9 l-41 14 0 -28 c0 -25
5 -30 44 -40 101 -25 205 -6 227 43 23 50 -12 79 -120 99 -79 15 -103 29 -83
49 15 15 115 14 155 -1 26 -10 27 -9 27 18 0 24 -5 30 -31 35 -44 9 -140 6
-166 -4z"/>
<path d="M2860 4380 l0 -130 30 0 30 0 0 130 0 130 -30 0 -30 0 0 -130z"/>
<path d="M3030 4381 l0 -131 30 0 29 0 3 93 3 92 50 -89 c28 -49 55 -91 61
-93 6 -2 33 37 60 86 27 50 53 91 58 91 5 0 6 -39 3 -90 l-6 -90 32 0 32 0 0
130 0 130 -35 0 c-34 0 -37 -3 -88 -96 l-54 -96 -51 94 c-50 90 -53 93 -89 96
l-38 3 0 -130z"/>
<path d="M3640 4380 l0 -130 30 0 30 0 0 130 0 130 -30 0 -30 0 0 -130z"/>
<path d="M3797 4503 c-4 -3 -7 -15 -7 -25 0 -15 8 -18 55 -18 l55 0 0 -105 0
-105 30 0 30 0 0 105 0 105 54 0 c51 0 53 1 48 25 l-4 25 -127 0 c-70 0 -131
-3 -134 -7z"/>
<path d="M4349 4490 c-70 -37 -88 -132 -37 -188 33 -35 79 -52 140 -51 81 2
102 10 106 43 3 25 1 27 -20 19 -13 -4 -51 -8 -85 -8 -51 0 -66 4 -87 24 -25
24 -34 64 -18 87 28 40 115 57 176 34 24 -9 26 -7 26 19 0 34 -17 41 -105 40
-39 0 -72 -6 -96 -19z"/>
<path d="M4655 4383 l0 -128 120 0 120 0 3 25 3 26 -96 -4 -97 -4 4 106 3 106
-30 0 -30 0 0 -127z"/>
<path d="M4984 4479 c3 -17 6 -60 6 -95 0 -56 4 -68 28 -95 23 -25 38 -33 79
-36 59 -6 113 9 139 38 15 16 20 42 24 120 l5 99 -32 0 -33 0 0 -85 c0 -72 -3
-88 -20 -105 -26 -26 -80 -26 -111 -1 -22 18 -24 27 -24 105 l0 86 -34 0 c-32
0 -33 -1 -27 -31z"/>
<path d="M5370 4380 l0 -130 98 1 c118 0 163 14 176 52 13 36 -1 59 -44 73
-28 9 -30 12 -12 16 32 9 56 52 42 78 -17 31 -51 40 -161 40 l-99 0 0 -130z
m201 73 c7 -7 9 -19 6 -27 -5 -13 -22 -16 -77 -16 l-70 0 0 31 0 31 65 -4 c36
-2 70 -9 76 -15z m0 -93 c23 -13 25 -46 3 -54 -9 -3 -45 -6 -80 -6 l-64 0 0
35 0 35 61 0 c33 0 69 -5 80 -10z"/>
<path d="M1550 4360 l0 -60 350 0 350 0 0 60 0 60 -350 0 -350 0 0 -60z"/>
<path d="M6050 4340 l0 -60 350 0 350 0 0 60 0 60 -350 0 -350 0 0 -60z"/>
<path d="M2097 3988 c118 -639 545 -1203 1133 -1498 609 -305 1307 -303 1911
6 410 210 738 543 943 958 61 124 146 366 170 488 19 94 20 118 3 118 -9 0
-18 -25 -27 -72 -52 -297 -207 -636 -403 -888 -69 -88 -236 -259 -323 -330
-303 -250 -674 -408 -1079 -461 -116 -15 -386 -15 -495 0 -405 57 -762 208
-1061 449 -103 83 -302 291 -373 391 -184 257 -322 573 -368 843 -9 52 -16 68
-28 68 -15 0 -16 -6 -3 -72z"/>
<path d="M1283 4024 c-9 -4 -9 -13 -2 -30 5 -14 9 -38 9 -55 0 -25 14 -97 28
-139 2 -8 6 -30 8 -49 2 -18 7 -38 12 -45 5 -6 12 -31 16 -54 4 -24 15 -60 25
-80 10 -21 16 -42 14 -49 -2 -6 3 -25 11 -42 9 -16 16 -39 16 -51 0 -13 4 -19
11 -14 8 4 9 0 4 -15 -3 -12 -2 -21 4 -21 6 0 16 -19 23 -42 6 -24 16 -46 21
-49 4 -3 7 -10 6 -15 -4 -21 2 -35 11 -29 9 6 15 -8 11 -29 -1 -4 5 -19 14
-32 8 -13 15 -30 15 -39 0 -8 9 -20 19 -27 10 -6 17 -17 14 -24 -3 -7 7 -25
23 -39 15 -14 22 -25 15 -25 -8 0 -7 -9 4 -30 9 -16 18 -30 21 -30 3 0 2 5 -2
12 -4 7 -3 8 5 4 6 -4 11 -13 10 -19 -3 -17 22 -67 33 -67 5 0 6 -5 2 -12 -4
-7 -3 -8 4 -4 7 4 12 1 12 -7 0 -15 90 -159 115 -183 7 -7 15 -11 18 -8 3 3 4
-3 4 -13 -1 -10 4 -17 11 -15 8 1 11 -2 7 -8 -3 -5 4 -20 17 -33 13 -13 30
-34 39 -47 29 -45 129 -151 129 -138 0 7 8 -2 18 -21 10 -18 27 -38 39 -45 12
-6 21 -14 20 -17 -4 -12 126 -124 140 -121 9 2 12 -1 8 -7 -7 -12 53 -68 67
-63 4 1 8 -2 8 -8 0 -5 7 -10 16 -10 8 0 13 -4 9 -9 -8 -15 55 -55 67 -43 7 7
4 14 -10 21 -11 6 -28 19 -38 28 -37 38 -87 72 -95 67 -5 -3 -9 2 -9 10 0 8
-12 24 -27 36 -34 27 -247 234 -250 244 -4 10 -24 34 -64 77 -20 22 -34 39
-30 39 3 1 -4 9 -17 20 -13 10 -22 20 -21 22 6 8 -34 57 -42 52 -5 -3 -9 4 -9
15 0 11 -5 23 -12 27 -7 4 -8 3 -4 -4 4 -7 2 -12 -4 -12 -6 0 -10 8 -8 18 3
21 -36 75 -47 64 -5 -4 -5 2 -1 13 4 11 4 16 0 12 -4 -4 -20 21 -37 56 -16 34
-32 64 -36 67 -4 3 -23 36 -41 73 -19 37 -43 77 -53 87 -12 14 -14 20 -5 20 8
0 9 3 3 8 -13 9 -75 135 -75 152 0 7 -8 29 -19 49 -18 36 -24 53 -62 164 -34
99 -85 304 -93 374 -5 36 -27 143 -29 142 -1 0 -7 -3 -14 -5z m667 -1479 c13
-14 21 -25 18 -25 -2 0 -15 11 -28 25 -13 14 -21 25 -18 25 2 0 15 -11 28 -25z"/>
<path d="M7056 4003 c-3 -16 -11 -59 -17 -98 -33 -199 -103 -434 -189 -630
-37 -85 -155 -316 -165 -325 -8 -6 -11 -19 -8 -27 4 -11 2 -14 -5 -9 -7 4 -12
2 -12 -3 0 -6 -14 -30 -30 -53 -17 -23 -28 -48 -26 -54 3 -7 0 -11 -7 -9 -10
4 -44 -40 -102 -132 -5 -9 -20 -27 -32 -41 -13 -13 -20 -29 -17 -34 3 -4 2 -7
-3 -6 -13 4 -154 -158 -145 -167 4 -5 2 -5 -4 -2 -14 8 -57 -36 -47 -48 5 -4
3 -5 -3 -2 -7 4 -25 -8 -40 -26 -16 -18 -46 -46 -67 -63 -20 -16 -35 -34 -33
-41 3 -7 0 -10 -7 -7 -7 2 -29 -12 -50 -31 -21 -19 -41 -35 -45 -35 -4 0 -27
-18 -51 -40 -24 -22 -46 -40 -48 -40 -15 0 -62 -43 -57 -51 3 -6 0 -10 -7 -8
-27 3 -40 -1 -34 -11 3 -5 1 -10 -6 -10 -7 0 -55 -26 -108 -58 -53 -33 -130
-77 -171 -98 -41 -21 -78 -43 -82 -49 -4 -5 -8 -6 -8 -2 0 5 -7 1 -16 -7 -8
-9 -24 -16 -34 -16 -29 0 -70 -22 -63 -33 3 -6 1 -7 -6 -3 -15 10 -53 -3 -46
-15 4 -5 -4 -9 -17 -9 -23 0 -126 -33 -159 -50 -9 -5 -27 -11 -41 -14 -13 -2
-46 -11 -72 -20 -63 -21 -271 -68 -321 -72 -22 -2 -51 -6 -65 -10 -14 -4 -28
-7 -31 -6 -3 0 -48 -3 -100 -8 -229 -23 -593 -9 -786 31 -29 6 -57 8 -63 4 -5
-3 -10 -2 -10 4 0 9 -63 25 -102 26 -9 0 -20 3 -24 7 -4 5 -14 8 -23 8 -22 0
-189 52 -274 86 -17 6 -18 5 -6 -15 8 -12 20 -19 26 -16 7 2 13 -1 13 -6 0 -6
9 -9 20 -6 11 3 18 2 15 -3 -2 -4 23 -15 58 -24 34 -10 80 -24 102 -32 22 -8
56 -16 75 -18 19 -2 42 -6 50 -9 58 -19 110 -29 218 -42 68 -8 126 -16 130
-19 7 -4 251 -20 312 -20 19 0 76 3 125 7 50 4 122 10 160 13 39 3 85 10 102
15 18 6 36 8 41 5 4 -2 26 0 48 5 21 5 53 11 69 13 52 6 150 29 155 37 3 4 23
10 45 13 43 5 103 24 121 37 6 5 13 6 17 3 8 -9 48 6 42 16 -3 4 5 6 17 2 16
-4 19 -2 13 8 -5 9 -4 11 4 6 15 -10 82 15 74 27 -3 6 -1 7 5 3 16 -10 63 4
55 17 -3 6 -1 7 5 3 14 -8 262 109 262 124 0 5 6 7 13 4 7 -2 22 4 33 14 10
10 26 16 33 14 8 -3 11 0 7 6 -3 5 6 13 19 16 16 4 23 11 19 18 -4 7 -3 8 4 4
15 -9 72 24 72 41 0 6 4 15 10 18 6 3 7 -1 4 -10 -6 -14 112 63 176 115 21 17
22 19 5 14 -16 -5 -17 -4 -5 4 8 6 17 9 22 6 11 -7 48 28 41 39 -3 6 -1 7 4 4
6 -4 22 4 37 18 14 13 26 22 26 19 0 -2 13 8 30 22 16 15 27 31 23 37 -3 6 -2
7 4 4 15 -9 97 69 88 83 -5 8 -3 11 6 8 16 -6 159 139 159 160 0 7 5 10 10 7
6 -3 10 -2 10 3 0 5 13 22 30 38 16 16 30 32 30 36 0 4 11 19 25 34 14 15 25
33 25 41 0 8 4 12 9 8 5 -3 12 4 16 15 3 11 10 20 15 20 4 0 11 7 14 16 4 10
2 13 -6 8 -7 -4 -8 -3 -4 4 4 7 14 12 22 12 8 0 13 4 10 9 -3 5 0 11 7 14 7 3
24 27 37 53 14 27 30 54 36 59 13 11 63 96 63 108 1 4 1 12 1 19 0 6 3 8 6 5
8 -7 53 74 80 144 10 24 22 47 27 50 5 4 10 21 11 38 0 17 6 31 13 31 14 0 35
58 26 73 -3 6 -1 7 5 3 8 -4 12 0 12 11 0 11 4 23 9 29 16 17 40 105 34 121
-4 10 -2 14 4 10 7 -4 14 8 18 31 4 20 12 43 17 50 6 7 8 15 5 18 -3 3 3 29
13 58 38 108 81 356 62 356 -6 0 -13 -12 -16 -27z m-2303 -2450 c-7 -2 -19 -2
-25 0 -7 3 -2 5 12 5 14 0 19 -2 13 -5z"/>
<path d="M2915 3848 c-3 -95 -5 -344 -3 -553 l3 -380 178 -3 177 -2 0 555 0
555 -174 0 -174 0 -7 -172z"/>
<path d="M4450 3465 l0 -555 180 0 180 0 0 555 0 555 -180 0 -180 0 0 -555z"/>
<path d="M2436 2081 c-8 -12 21 -34 34 -26 8 5 8 11 -1 21 -13 16 -25 18 -33
5z"/>
<path d="M2475 2051 c-3 -6 15 -24 40 -41 25 -17 45 -27 45 -23 0 4 7 -1 15
-11 8 -11 15 -16 15 -10 0 5 6 2 13 -6 16 -20 82 -66 73 -51 -5 7 -1 9 8 5 9
-3 13 -11 9 -17 -3 -5 -1 -7 4 -4 6 4 14 0 17 -9 5 -12 14 -14 34 -10 18 5 23
4 13 -3 -16 -10 47 -45 214 -119 55 -24 120 -52 144 -63 48 -22 55 -22 38 1
-15 19 -61 40 -87 40 -11 0 -20 4 -20 9 0 5 -32 22 -71 37 -38 15 -72 31 -75
35 -2 5 -12 5 -21 2 -10 -4 -14 -2 -10 4 3 5 -13 18 -36 28 -23 10 -54 27 -69
38 -15 11 -31 16 -39 12 -8 -5 -10 -4 -5 3 4 7 1 12 -8 12 -9 0 -16 4 -16 9 0
4 -22 19 -50 32 -27 13 -50 27 -50 31 0 5 -7 8 -15 8 -8 0 -15 4 -15 9 0 8
-73 61 -84 61 -3 0 -7 -4 -11 -9z"/>
</g>
</svg>
