<svg xmlns="http://www.w3.org/2000/svg" viewBox="0 0 1840.7 1840.7">
	<defs>
		<linearGradient id="linear-gradient" x1="1442" x2="420.54" y1="1228.22"
										y2="638.48" gradientUnits="userSpaceOnUse">
			<stop offset="0" stop-color="#4b0000"/>
			<stop offset=".11" stop-color="#520101" stop-opacity=".77"/>
			<stop offset=".31" stop-color="#5e0303" stop-opacity=".44"/>
			<stop offset=".53" stop-color="#660505" stop-opacity=".19"/>
			<stop offset=".75" stop-color="#6a0606" stop-opacity=".05"/>
			<stop offset="1" stop-color="#6c0606" stop-opacity="0"/>
		</linearGradient>
		<style>.cls-1 {
			fill: #050606
		}

		.cls-3 {
			fill: #cf2528
		}

		.cls-4 {
			fill: #fff
		}

		.cls-5 {
			fill: #e05d5b
		}

		.cls-6 {
			fill: none
		}</style>
	</defs>
	<g id="Layer_2" data-name="Layer 2">
		<g id="Layer_1-2" data-name="Layer 1">
			<circle cx="920.35" cy="920.35" r="920.35" class="cls-1"/>
			<path
				d="M1281.85 624.25q-9.13 45.68-22 90.26-6.71 23.28-14.17 46.27l174.82 91.62q.59-18.84 0-37.67a636.51 636.51 0 0 0-8.61-88.24 680.74 680.74 0 0 0-20.54-86.26c-11.62-37.29-23.73-70.71-45.64-105.13-25.91-40.7-45.16-61.65-45.16-61.65l-.37-.29q-1.1 29.52-4.27 58.79-4.73 46.59-14.06 92.3Zm189.61 189.55q.21 23.93-1.19 47.8-.48 8.14-1.13 16.27l51.32 26.89a586.12 586.12 0 0 0-67-246q6.63 29.61 10.84 59.68a733.88 733.88 0 0 1 7.16 95.36Zm-273.87 74.48c-12 28.27-24.83 56.1-38.14 83.69-6.79 13.72-13.51 27.48-20.61 41q-3.06 6-6.16 11.9l214.47 112.4c22.86-47 41.35-95.94 53.94-146.35a688.49 688.49 0 0 0 15.07-81.58l-187.84-98.43c-9.58 26.09-19.9 51.86-30.73 77.37Zm-125.2 245.27q-23.51 39.45-48.64 78-17.29 26.43-35.53 52.27l189.92 99.53a639.5 639.5 0 0 0 58.91-58.32c32.6-37 60.94-78 85.59-121.25L1108 1071.23q-17.29 31.44-35.61 62.32ZM505.66 668.09q12.22-20.33 25.55-40t27.86-38.52c9.65-12.59 19.78-24.81 30.12-36.87q23-26.76 48.72-51.17l-66.86-35a592.36 592.36 0 0 0-156.27 182.14l78.34 41.06q6.15-10.89 12.54-21.64Zm187.15-213.93q18.83-14.73 38.63-28.19A735.15 735.15 0 0 1 814 377.62a744.08 744.08 0 0 1 74.29-32.46 586.2 586.2 0 0 0-268.6 87.52l60.42 31.66q6.29-5.14 12.7-10.18Zm144.3-28.92a634.42 634.42 0 0 0-77.47 43.13q-15.82 10.22-31 21.44L910.39 585q14.65-19.21 30-38 29.37-35.86 61.71-69.42t67.9-64.06q23.76-20.56 49.15-39.37l-.39-.14a336.67 336.67 0 0 0-79.76-5.79c-41 2-80.07 12.56-119.24 24.82a676.37 676.37 0 0 0-82.65 32.2Zm-73.3 391.22c7.11-13.55 14.59-26.91 22-40.3 15.11-26.64 30.69-53 47.11-79q22.23-35.13 46.12-69.29l-194.73-102a687.87 687.87 0 0 0-58.5 58.81c-34.29 39-64 82.11-89.66 127.63l221.37 116c2.1-3.96 4.18-7.91 6.29-11.85Zm64.47-16.34c-7.27 13-14.6 26-21.57 39.26-2.07 3.81-4.1 7.64-6.13 11.48l289.05 151.48q3-5.77 5.95-11.57c6.9-13.26 13.42-26.68 20-40.08 12.92-26.91 25.36-54 36.92-81.47q16.85-40.41 31.23-81.65l-260.1-136.31q-25.7 35.28-49.37 72.14c-15.99 25.13-31.2 50.79-45.98 76.72Zm178.11 346.08q12-18.9 23.6-38.07 17.8-29.51 34.63-59.63L776.86 897.7q-15.2 31-29.33 62.41-9.16 20.45-17.88 41.06c-5.79 13.76-11.31 27.62-16.73 41.51q-12.42 32-23.59 64.45l252.88 132.53q20.32-27.62 39.57-56.08c8.34-12.36 16.6-24.79 24.61-37.38Zm-348.88 66.11c-15 57.38-26.09 115.69-31.29 173.91q-1.23 14.51-1.94 29a34.78 34.78 0 0 0 17.53 32q24 13.57 49.44 24.93a34.83 34.83 0 0 0 35.41-4.29q11.12-8.53 22-17.5c44.92-37.41 86.56-79.71 125.2-124.69q18.49-21.42 36-43.69l-237-124.18c-5.44 18.09-10.62 36.25-15.35 54.51Zm552.88-511.42c7.51-28.61 14-57.44 19-86.44s8.51-58.18 10.61-87.36q2.25-32.89 1.69-65.73a53.09 53.09 0 0 0-27.56-45.67l-.55-.3a53 53 0 0 0-54.68 2.52q-27.35 18.18-53.13 38.83-34.21 27.5-65.81 58.44c-21 20.67-41 42.38-60.24 64.84q-12.21 14.18-23.88 28.86l244.37 128.06q5.43-17.94 10.18-36.05ZM411.7 885.58a777.45 777.45 0 0 1 30.3-90.43q12.23-30.06 26.63-59l-77.09-40.4A587.61 587.61 0 0 0 341.74 925l55.27 29a692.59 692.59 0 0 1 14.69-68.42Zm290.79 54.12q14.94-32.64 31-64.73L511.94 758.86c-21.57 44.9-39.11 91.5-51 139.38a640.5 640.5 0 0 0-14.43 81.63L643.32 1083q10.89-29.68 22.76-59 17.38-42.51 36.41-84.3Zm760.08-6c-3.67 23.29-8.43 46.4-14.36 69.18-4 15.36-8.32 30.65-13.18 45.75s-10.13 30-15.82 44.83-11.86 29.36-18.36 43.77q-5.2 11.37-10.65 22.63l69.28 36.31A586.58 586.58 0 0 0 1520.35 964Zm-857 264.38q9.47-32.73 20.22-65l-182.93-95.87q-.31 18.35.48 36.72a770.9 770.9 0 0 0 8.82 88.59c4.66 29.48 10.68 58.9 17.49 88.39 1.81 7.7 19.86 65.15 59.74 110.62a268.29 268.29 0 0 0 35.83 34.12c.58-5.27 1.19-10.54 1.87-15.8 7.8-62.04 21.6-122.51 38.46-181.77Zm566.23 239.44q-18.88 14.77-38.69 28.25c-22.52 15.38-45.87 29.4-69.59 42.48a586.29 586.29 0 0 0 159.5-62.16l-37.4-19.6q-6.88 5.58-13.84 11.03Zm-147.06 25.1a773.72 773.72 0 0 0 77.87-43.16q15.57-9.8 30.47-20.51L957 1306.7q-20.4 27.18-41.92 53.6c-39.14 47.59-81 93.35-127.6 135.09q-4.34 3.91-8.73 7.77c17.16 4.58 91.19 20.62 163.31-4.63 28.59-10 55.77-22.97 82.66-35.91Zm307.89-200.7a777 777 0 0 1-57.13 76.34 693.72 693.72 0 0 1-47.85 51l46.27 24.25a593 593 0 0 0 160.1-171.4l-68-35.65q-15.68 28.25-33.41 55.46Zm-944.75-186.69q-.18-23.94 1.21-47.89.5-8.83 1.21-17.64l-46.36-24.3a585.78 585.78 0 0 0 51.16 193.54c-.35-2.85-.75-5.7-1.07-8.56a885.73 885.73 0 0 1-6.15-95.15Zm894-451q-9.13 45.68-22 90.26-6.71 23.28-14.17 46.27l174.82 91.62q.59-18.84 0-37.67a636.51 636.51 0 0 0-8.61-88.24 680.74 680.74 0 0 0-20.54-86.26c-11.62-37.29-23.73-70.71-45.64-105.13-25.91-40.7-45.16-61.65-45.16-61.65l-.37-.29q-1.1 29.52-4.27 58.79-4.76 46.61-14.09 92.32Zm189.58 189.57q.21 23.93-1.19 47.8-.48 8.14-1.13 16.27l51.32 26.89a586.12 586.12 0 0 0-67-246q6.63 29.61 10.84 59.68a733.88 733.88 0 0 1 7.16 95.36Zm-273.87 74.48c-12 28.27-24.83 56.1-38.14 83.69-6.79 13.72-13.51 27.48-20.61 41q-3.06 6-6.16 11.9l214.47 112.4c22.86-47 41.35-95.94 53.94-146.35a688.49 688.49 0 0 0 15.07-81.58l-187.84-98.43c-9.58 26.09-19.9 51.86-30.73 77.37Zm-125.2 245.27q-23.51 39.45-48.64 78-17.29 26.43-35.53 52.27l189.92 99.53a639.5 639.5 0 0 0 58.91-58.32c32.6-37 60.94-78 85.59-121.25L1108 1071.23q-17.29 31.44-35.61 62.32ZM505.66 668.09q12.22-20.33 25.55-40t27.86-38.52c9.65-12.59 19.78-24.81 30.12-36.87q23-26.76 48.72-51.17l-66.86-35a592.36 592.36 0 0 0-156.27 182.14l78.34 41.06q6.15-10.89 12.54-21.64Zm187.15-213.93q18.83-14.73 38.63-28.19A735.15 735.15 0 0 1 814 377.62a744.08 744.08 0 0 1 74.29-32.46 586.2 586.2 0 0 0-268.6 87.52l60.42 31.66q6.29-5.14 12.7-10.18Zm144.3-28.92a634.42 634.42 0 0 0-77.47 43.13q-15.82 10.22-31 21.44L910.39 585q14.65-19.21 30-38 29.37-35.86 61.71-69.42t67.9-64.06q23.76-20.56 49.15-39.37l-.39-.14a336.67 336.67 0 0 0-79.76-5.79c-41 2-80.07 12.56-119.24 24.82a676.37 676.37 0 0 0-82.65 32.2Zm-73.3 391.22c7.11-13.55 14.59-26.91 22-40.3 15.11-26.64 30.69-53 47.11-79q22.23-35.13 46.12-69.29l-194.73-102a687.87 687.87 0 0 0-58.5 58.81c-34.29 39-64 82.11-89.66 127.63l221.37 116c2.1-3.96 4.18-7.91 6.29-11.85Zm64.47-16.34c-7.27 13-14.6 26-21.57 39.26-2.07 3.81-4.1 7.64-6.13 11.48l289.05 151.48q3-5.77 5.95-11.57c6.9-13.26 13.42-26.68 20-40.08 12.92-26.91 25.36-54 36.92-81.47q16.85-40.41 31.23-81.65l-260.1-136.31q-25.7 35.28-49.37 72.14c-15.99 25.13-31.2 50.79-45.98 76.72Zm178.11 346.08q12-18.9 23.6-38.07 17.8-29.51 34.63-59.63L776.86 897.7q-15.2 31-29.33 62.41-9.16 20.45-17.88 41.06c-5.79 13.76-11.31 27.62-16.73 41.51q-12.42 32-23.59 64.45l252.88 132.53q20.32-27.62 39.57-56.08c8.34-12.36 16.6-24.79 24.61-37.38Zm-348.88 66.11c-15 57.38-26.09 115.69-31.29 173.91q-1.23 14.51-1.94 29a34.78 34.78 0 0 0 17.53 32q24 13.57 49.44 24.93a34.83 34.83 0 0 0 35.41-4.29q11.12-8.53 22-17.5c44.92-37.41 86.56-79.71 125.2-124.69q18.49-21.42 36-43.69l-237-124.18c-5.44 18.09-10.62 36.25-15.35 54.51Zm552.88-511.42c7.51-28.61 14-57.44 19-86.44s8.51-58.18 10.61-87.36q2.25-32.89 1.69-65.73a53.09 53.09 0 0 0-27.56-45.67l-.55-.3a53 53 0 0 0-54.68 2.52q-27.35 18.18-53.13 38.83-34.21 27.5-65.81 58.44c-21 20.67-41 42.38-60.24 64.84q-12.21 14.18-23.88 28.86l244.37 128.06q5.43-17.94 10.18-36.05ZM411.7 885.58a777.45 777.45 0 0 1 30.3-90.43q12.23-30.06 26.63-59l-77.09-40.4A587.61 587.61 0 0 0 341.74 925l55.27 29a692.59 692.59 0 0 1 14.69-68.42Zm290.79 54.12q14.94-32.64 31-64.73L511.94 758.86c-21.57 44.9-39.11 91.5-51 139.38a640.5 640.5 0 0 0-14.43 81.63L643.32 1083q10.89-29.68 22.76-59 17.38-42.51 36.41-84.3Zm760.08-6c-3.67 23.29-8.43 46.4-14.36 69.18-4 15.36-8.32 30.65-13.18 45.75s-10.13 30-15.82 44.83-11.86 29.36-18.36 43.77q-5.2 11.37-10.65 22.63l69.28 36.31A586.58 586.58 0 0 0 1520.35 964Zm-857 264.38q9.47-32.73 20.22-65l-182.93-95.87q-.31 18.35.48 36.72a770.9 770.9 0 0 0 8.82 88.59c4.66 29.48 10.68 58.9 17.49 88.39 1.81 7.7 19.86 65.15 59.74 110.62a268.29 268.29 0 0 0 35.83 34.12c.58-5.27 1.19-10.54 1.87-15.8 7.8-62.04 21.6-122.51 38.46-181.77Zm566.23 239.44q-18.88 14.77-38.69 28.25c-22.52 15.38-45.87 29.4-69.59 42.48a586.29 586.29 0 0 0 159.5-62.16l-37.4-19.6q-6.88 5.58-13.84 11.03Zm-147.06 25.1a773.72 773.72 0 0 0 77.87-43.16q15.57-9.8 30.47-20.51L957 1306.7q-20.4 27.18-41.92 53.6c-39.14 47.59-81 93.35-127.6 135.09q-4.34 3.91-8.73 7.77c17.16 4.58 91.19 20.62 163.31-4.63 28.59-10 55.77-22.97 82.66-35.91Zm307.89-200.7a777 777 0 0 1-57.13 76.34 693.72 693.72 0 0 1-47.85 51l46.27 24.25a593 593 0 0 0 160.1-171.4l-68-35.65q-15.68 28.25-33.41 55.46Zm-944.75-186.69q-.18-23.94 1.21-47.89.5-8.83 1.21-17.64l-46.36-24.3a585.78 585.78 0 0 0 51.16 193.54c-.35-2.85-.75-5.7-1.07-8.56a885.73 885.73 0 0 1-6.15-95.15Z"
				style="opacity:.7;fill:url(#linear-gradient)"/>
			<path
				d="M1279.69 651.53c-12.54-4-41.88-9.29-54.65-10.83-25.32-3.06-68.26-7.69-101.81-8.58-7.82-.21-9.11 3.54-9 10 .41 19 .5 34.19.71 53.22q0 30.06.08 60.11-.55 45.18-1.09 90.35l-107.5.25q-.53-75.54-1-151.07c.18-18.59 0-33.31.7-51.88.31-8.63-2.91-11.06-11.26-11.21-31.33-.57-50 0-81.08 4-17.86 2.27-48.81 9.71-56.46 11.92-39.51 11.46-75.65 21-99 33.81-10.41 5.73-13.8 3.69-13.21-8.22-.06-13.66 0-27.14 0-40.72 0-20.16 0-20.43 20.51-20.41 167.43.16 572.64.09 599.68 0 8 0 11.87 1.9 11.59 10.85-.54 17.55-.29 35.12-.09 52.68.13 11.51-3.58 11.92-13 6.64-28.04-15.67-53.39-20.98-84.12-30.91ZM1005.77 1139.37c.32-35.24-.33-70.49 0-105.73 31.89-.08 107.62 0 107.62 0v293c-.24 9.38.13 15.08 0 28.11-.13 12.54-1.48 15.22-14.36 15.33-4.91 0-58.74.18-82.25.49-8.56.12-11.34-2.75-11-11.2-.1-13.51.13-26 0-39.06v-48.35c-.06-1.91.06-3.83 0-5.75.07-15.18-.07-30.37 0-45.55ZM649.28 1033.64q.36 101 .7 202c.1 38.71-.71 77.45.4 116.14.43 15-1.84 18.87-18.76 18.87-2.87-.48-74.82 0-81.54 0-5.36-.39-9.45-6.5-9.45-11.81 1.88-92.64.64-181.39 0-274v-51.19s76.51-.08 108.65-.01Z"
				class="cls-3"/>
			<path
				d="M111.4 578.62A881.19 881.19 0 0 1 578.62 111.4c108.23-45.77 223.2-69 341.73-69s233.5 23.21 341.73 69a877.46 877.46 0 0 1 529.08 696.31 6.47 6.47 0 0 0 6.41 5.67 6.48 6.48 0 0 0 6.44-7.29C1747.93 368 1373.69 29.41 920.35 29.41S92.77 368 36.68 806.09a6.49 6.49 0 0 0 6.44 7.29 6.48 6.48 0 0 0 6.42-5.67 868.81 868.81 0 0 1 61.86-229.09Z"
				class="cls-4"/>
			<path
				d="M1729.3 1262.08a881 881 0 0 1-467.22 467.22c-108.23 45.78-223.2 69-341.73 69s-233.5-23.21-341.73-69A877.55 877.55 0 0 1 49.9 1035.85a6.46 6.46 0 0 0-6.41-5.64 6.48 6.48 0 0 0-6.43 7.31C94.42 1474.2 468 1811.3 920.35 1811.3s825.93-337.1 883.3-773.78a6.49 6.49 0 0 0-6.44-7.31 6.46 6.46 0 0 0-6.41 5.64 868.85 868.85 0 0 1-61.5 226.23Z"
				class="cls-5"/>
			<path
				d="M541.78 846.24c-.24-67.36-.53-31.62-.7-99-.1-38.72.71-77.46-.4-116.14-.43-15 1.83-18.87 18.76-18.87 2.86.48 74.82 0 81.53 0 5.36.39 9.46 6.49 9.46 11.81-1.88 92.63-.65 78.35 0 171v51.19s-76.51.07-108.65.01Z"
				class="cls-3"/>
			<path
				d="M473 1367.69a632.58 632.58 0 0 0 1070.5-337.48H297.21A630.67 630.67 0 0 0 473 1367.69ZM1367.69 473A632.5 632.5 0 0 0 294.88 824.84h1250.95A630.64 630.64 0 0 0 1367.69 473Z"
				class="cls-6"/>
			<path
				d="M337.43 674.11A632.69 632.69 0 0 1 1545.22 820.9a4.65 4.65 0 0 0 4.59 3.94 4.68 4.68 0 0 0 4.63-5.4C1506 512.82 1240.59 278.35 920.35 278.35S334.67 512.82 286.26 819.44a4.68 4.68 0 0 0 4.63 5.4 4.65 4.65 0 0 0 4.6-3.94 625.9 625.9 0 0 1 41.94-146.79Z"
				class="cls-5"/>
			<path
				d="M1503.27 1166.6A632.72 632.72 0 0 1 297.89 1034a4.64 4.64 0 0 0-4.57-3.82 4.67 4.67 0 0 0-4.6 5.48c54.34 299.52 316.44 526.67 631.63 526.67s577.29-227.15 631.63-526.67a4.67 4.67 0 0 0-4.6-5.48 4.63 4.63 0 0 0-4.56 3.82 626.4 626.4 0 0 1-39.55 132.6Z"
				class="cls-4"/>
			<path d="M1555.27 824.84H240.97v205.37h1416.96V824.84h-102.66z"
						class="cls-1"/>
			<path
				d="M489.26 906.72c-1.48-.73-3.43-1.54-5.86-2.45s-5.19-1.78-8.26-2.6a96.76 96.76 0 0 0-10-2 73.64 73.64 0 0 0-11.14-.87q-4.56 0-7.77.28a48.92 48.92 0 0 0-5.42.74 16.43 16.43 0 0 0-3.47 1.06 7.82 7.82 0 0 0-2 1.22 3.07 3.07 0 0 0-.88 1.25 3.91 3.91 0 0 0-.2 1.14 3.69 3.69 0 0 0 1.71 3 16.51 16.51 0 0 0 4.67 2.28 66.39 66.39 0 0 0 6.89 1.88c2.62.59 5.41 1.2 8.35 1.83s6 1.31 9.11 2 6.18 1.6 9.12 2.59a65.77 65.77 0 0 1 8.35 3.45 32.14 32.14 0 0 1 6.89 4.58 20 20 0 0 1 4.67 6 17.22 17.22 0 0 1 1.71 7.81 21.85 21.85 0 0 1-2 9.68 20.8 20.8 0 0 1-5.33 6.84 26.94 26.94 0 0 1-7.72 4.47 53.82 53.82 0 0 1-9.2 2.59 75.54 75.54 0 0 1-9.74 1.2q-4.93.29-9.37.28a113.77 113.77 0 0 1-21.51-1.91 107.69 107.69 0 0 1-17.46-4.75V939.7a71.48 71.48 0 0 0 17.8 6.78 89.88 89.88 0 0 0 21.39 2.45 69.16 69.16 0 0 0 11-.71 27.09 27.09 0 0 0 6.64-1.83 7.55 7.55 0 0 0 3.24-2.42 4.61 4.61 0 0 0 .86-2.5 4.13 4.13 0 0 0-1.71-3.28 15.72 15.72 0 0 0-4.67-2.45 61 61 0 0 0-6.89-1.94q-3.94-.87-8.35-1.76t-9.09-1.91q-4.67-1-9.08-2.42a65.56 65.56 0 0 1-8.35-3.25 30 30 0 0 1-6.89-4.39 19 19 0 0 1-4.67-5.86 16.69 16.69 0 0 1-1.71-7.72 20.28 20.28 0 0 1 1.82-9 19.55 19.55 0 0 1 4.93-6.4 26.12 26.12 0 0 1 7.18-4.31 48.36 48.36 0 0 1 8.57-2.56 73.09 73.09 0 0 1 9.11-1.25c3.08-.23 6-.34 8.78-.34q4.56 0 9.37.45c3.21.31 6.37.73 9.48 1.28s6.13 1.19 9 1.91 5.6 1.48 8.06 2.28ZM519.37 962.94v-78.27h21.14v78.27ZM668.14 962.94V908l-29 55h-20.33l-29.06-55v55h-21.13v-78.33h28.71L629 943.92l31.62-59.25h28.59v78.27ZM764.76 962.94v-78.27h21.13v78.27ZM857.87 901.7v61.24h-21.13V901.7h-33.22v-17h87.62v17ZM1034.19 960.66c-2.78.92-5.64 1.7-8.61 2.37a81.53 81.53 0 0 1-9.37 1.51 102.66 102.66 0 0 1-10.56.51 89 89 0 0 1-22-2.56 51.55 51.55 0 0 1-17.32-7.72A36.3 36.3 0 0 1 955 941.89a42.25 42.25 0 0 1 0-36.06A36.36 36.36 0 0 1 966.31 893a51.55 51.55 0 0 1 17.32-7.72 89 89 0 0 1 22-2.56 102.66 102.66 0 0 1 10.56.51 79.4 79.4 0 0 1 9.37 1.51c3 .66 5.83 1.45 8.61 2.36s5.52 1.94 8.26 3.08v19q-3.26-1.77-6.84-3.51a60.8 60.8 0 0 0-7.92-3.13 68.77 68.77 0 0 0-9.51-2.28 69.89 69.89 0 0 0-11.68-.88 56.43 56.43 0 0 0-16.55 2 29 29 0 0 0-10.51 5.47 18.89 18.89 0 0 0-5.53 7.83 26.76 26.76 0 0 0-1.59 9.14 28.47 28.47 0 0 0 .7 6.18 20 20 0 0 0 2.28 5.76 20.81 20.81 0 0 0 4.16 5 23.7 23.7 0 0 0 6.38 3.93 41 41 0 0 0 8.92 2.6 66 66 0 0 0 11.76.94 74.79 74.79 0 0 0 11.68-.83 66.31 66.31 0 0 0 9.51-2.19 59.43 59.43 0 0 0 7.92-3.11c2.39-1.16 4.67-2.34 6.84-3.56v19q-4.11 1.76-8.26 3.12ZM1065.77 962.94v-78.27h21.14v61.13h57.14v17.14ZM1254.08 947.62a26.73 26.73 0 0 1-8.71 9.06 47.65 47.65 0 0 1-14.5 6.12 93.06 93.06 0 0 1-40.68 0 47.44 47.44 0 0 1-14.55-6.12 26.67 26.67 0 0 1-8.72-9.06 22.24 22.24 0 0 1-2.91-11v-51.9h21.08V929a26.78 26.78 0 0 0 1 7.43 13.36 13.36 0 0 0 3.76 6.13 19.38 19.38 0 0 0 7.75 4.16 45.18 45.18 0 0 0 13 1.54 44.6 44.6 0 0 0 12.87-1.54 19.38 19.38 0 0 0 7.72-4.16 13.13 13.13 0 0 0 3.73-6.13 27.56 27.56 0 0 0 1-7.43v-44.33H1257v51.9a22.24 22.24 0 0 1-2.92 11.05ZM1373.8 941.35a23.56 23.56 0 0 1-1.2 7.92 17.39 17.39 0 0 1-3.33 5.78 16.63 16.63 0 0 1-5.13 3.93 30.52 30.52 0 0 1-6.61 2.4 50.12 50.12 0 0 1-7.71 1.22q-4.11.35-8.49.34h-56.8v-78.27h55.77q3.36 0 6.75.28a41 41 0 0 1 6.47 1.06 26.17 26.17 0 0 1 5.72 2.13 15.89 15.89 0 0 1 4.62 3.59 16.08 16.08 0 0 1 3.07 5.36 22.2 22.2 0 0 1 1.12 7.4q0 7.63-3.76 12.11t-11.85 5.95a41.08 41.08 0 0 1 9.77 1.74 18.3 18.3 0 0 1 6.63 3.65 13.49 13.49 0 0 1 3.76 5.64 22.9 22.9 0 0 1 1.2 7.77Zm-26.38-33.49a8.77 8.77 0 0 0-.42-2.86 5.44 5.44 0 0 0-1.65-2.37 9.07 9.07 0 0 0-3.25-1.65 18.25 18.25 0 0 0-5.24-.63h-31.16v14.7h31.16a20.07 20.07 0 0 0 5.24-.57 8.86 8.86 0 0 0 3.25-1.54 5.08 5.08 0 0 0 1.65-2.3 8.86 8.86 0 0 0 .42-2.78Zm4.9 31a8.74 8.74 0 0 0-.91-4.3 6 6 0 0 0-2.85-2.5 15.66 15.66 0 0 0-5-1.17q-3.08-.28-7.35-.29h-30.53v16.58h30.53q4.27 0 7.35-.28a15.09 15.09 0 0 0 5-1.2 6.14 6.14 0 0 0 2.85-2.54 8.72 8.72 0 0 0 .91-4.26Z"
				class="cls-4"/>
			<path
				d="M134.98 904.37h211.98v39.15H134.98zM1493.75 904.37h211.98v39.15h-211.98z"
				class="cls-3"/>
		</g>
	</g>
</svg>
