<?xml version="1.0" encoding="UTF-8"?>
<svg id="Layer_2" data-name="Layer 2" xmlns="http://www.w3.org/2000/svg" xmlns:xlink="http://www.w3.org/1999/xlink" viewBox="0 0 1840.7 1840.7">
  <defs>
    <style>
			.cls-1 {
				fill: url(#linear-gradient-2);
			}

			.cls-2 {
				fill: rgba(255, 255, 255, 0.95);
			}

			.cls-3 {
				fill: url(#linear-gradient-17);
			}

			.cls-4 {
				fill: #cf2528;
			}

			.cls-5 {
				fill: url(#linear-gradient-15);
			}

			.cls-6 {
				fill: url(#linear-gradient-18);
			}

			.cls-7 {
				fill: url(#linear-gradient-14);
			}

			.cls-8 {
				fill: url(#linear-gradient-20);
			}

			.cls-9 {
				fill: url(#linear-gradient-6);
			}

			.cls-10 {
				fill: url(#linear-gradient-11);
			}

			.cls-11 {
				fill: #1b1b1b;
			}

			.cls-12 {
				fill: url(#linear-gradient-10);
			}

			.cls-13 {
				fill: url(#linear-gradient-16);
			}

			.cls-14 {
				fill: url(#linear-gradient-21);
			}

			.cls-15 {
				fill: url(#linear-gradient-5);
			}

			.cls-16 {
				fill: #e05d5b;
			}

			.cls-17 {
				fill: none;
			}

			.cls-18 {
				fill: url(#linear-gradient-7);
			}

			.cls-19 {
				fill: url(#linear-gradient-9);
			}

			.cls-20 {
				fill: url(#linear-gradient-22);
			}

			.cls-21 {
				fill: url(#linear-gradient-3);
			}

			.cls-22 {
				fill: url(#linear-gradient);
			}

			.cls-23 {
				fill: url(#linear-gradient-23);
			}

			.cls-24 {
				fill: url(#linear-gradient-19);
			}

			.cls-25 {
				fill: url(#linear-gradient-4);
			}

			.cls-26 {
				fill: url(#linear-gradient-8);
			}

			.cls-27 {
				fill: url(#linear-gradient-12);
			}

			.cls-28 {
				fill: url(#linear-gradient-13);
			}
		</style>
    <linearGradient id="linear-gradient" x1="1182.46" y1="756.36" x2="348.43" y2="-77.67" gradientTransform="translate(0 760)" gradientUnits="userSpaceOnUse">
      <stop offset="0" stop-color="#f6d8d6"/>
      <stop offset=".53" stop-color="#e8d7d8"/>
      <stop offset="1" stop-color="#bebfbf"/>
    </linearGradient>
    <linearGradient id="linear-gradient-2" x1="1368.16" y1="570.66" x2="534.13" y2="-263.37" xlink:href="#linear-gradient"/>
    <linearGradient id="linear-gradient-3" x1="1217.4" y1="721.43" x2="383.37" y2="-112.61" xlink:href="#linear-gradient"/>
    <linearGradient id="linear-gradient-4" x1="1709.74" y1="229.08" x2="875.71" y2="-604.95" xlink:href="#linear-gradient"/>
    <linearGradient id="linear-gradient-5" x1="1445.88" y1="492.95" x2="611.84" y2="-341.09" xlink:href="#linear-gradient"/>
    <linearGradient id="linear-gradient-6" x1="1556.5" y1="382.33" x2="722.46" y2="-451.7" xlink:href="#linear-gradient"/>
    <linearGradient id="linear-gradient-7" x1="1677.42" y1="261.4" x2="843.39" y2="-572.63" xlink:href="#linear-gradient"/>
    <linearGradient id="linear-gradient-8" x1="1164.24" y1="774.58" x2="330.21" y2="-59.45" xlink:href="#linear-gradient"/>
    <linearGradient id="linear-gradient-9" x1="992.24" y1="946.58" x2="158.21" y2="112.55" xlink:href="#linear-gradient"/>
    <linearGradient id="linear-gradient-10" x1="1467.18" y1="471.65" x2="633.14" y2="-362.38" xlink:href="#linear-gradient"/>
    <linearGradient id="linear-gradient-11" x1="1526.76" y1="412.07" x2="692.72" y2="-421.96" xlink:href="#linear-gradient"/>
    <linearGradient id="linear-gradient-12" x1="1135.43" y1="803.39" x2="301.4" y2="-30.64" xlink:href="#linear-gradient"/>
    <linearGradient id="linear-gradient-13" x1="1248.99" y1="689.83" x2="414.96" y2="-144.2" xlink:href="#linear-gradient"/>
    <linearGradient id="linear-gradient-14" x1="1636.51" y1="302.31" x2="802.48" y2="-531.72" xlink:href="#linear-gradient"/>
    <linearGradient id="linear-gradient-15" x1="1531.95" y1="406.88" x2="697.91" y2="-427.16" xlink:href="#linear-gradient"/>
    <linearGradient id="linear-gradient-16" x1="1595.37" y1="343.45" x2="761.34" y2="-490.58" xlink:href="#linear-gradient"/>
    <linearGradient id="linear-gradient-17" x1="1325.03" y1="613.79" x2="491" y2="-220.24" xlink:href="#linear-gradient"/>
    <linearGradient id="linear-gradient-18" x1="1014.34" y1="924.49" x2="180.3" y2="90.45" xlink:href="#linear-gradient"/>
    <linearGradient id="linear-gradient-19" x1="605.69" y1="438.2" x2="605.45" y2="437.96" xlink:href="#linear-gradient"/>
    <linearGradient id="linear-gradient-20" x1="1054.59" y1="884.23" x2="220.56" y2="50.2" xlink:href="#linear-gradient"/>
    <linearGradient id="linear-gradient-21" x1="1315.23" y1="623.6" x2="481.19" y2="-210.44" xlink:href="#linear-gradient"/>
    <linearGradient id="linear-gradient-22" x1="1356.99" y1="581.84" x2="522.95" y2="-252.2" xlink:href="#linear-gradient"/>
    <linearGradient id="linear-gradient-23" x1="1101.84" y1="836.98" x2="267.81" y2="2.95" xlink:href="#linear-gradient"/>
  </defs>
  <circle class="cls-2" cx="920.35" cy="920.35" r="920.35"/>
  <g>
    <polygon class="cls-17" points="605.57 1197.08 605.57 1197.08 605.57 1197.08 605.57 1197.08"/>
    <path class="cls-22" d="m1185.62,1426.49c-4.59,3.72-9.2,7.4-13.84,11.03h0s0,0,0,0h.02c-12.59,9.85-25.48,19.26-38.69,28.25-22.52,15.38-45.87,29.4-69.59,42.48,0,0,0,0,0,0h0c55.92-12.8,109.66-33.75,159.5-62.16h0s0,0,0,0l-37.4-19.6Z"/>
    <path class="cls-1" d="m759.36,824.84c1.48-2.8,2.96-5.59,4.45-8.38h0c7.11-13.55,14.59-26.91,22-40.3,15.11-26.64,30.69-53,47.11-79,14.82-23.42,30.19-46.52,46.12-69.29h0,0s-194.73-102-194.73-102c-20.67,18.41-40.2,38.05-58.5,58.81-34.29,39-64,82.11-89.66,127.63h0s0,0,0,0l214.75,112.53h8.46Z"/>
    <path class="cls-21" d="m637.84,824.84l-125.9-65.98c-10.38,21.61-19.82,43.63-28.16,65.98h154.05Z"/>
    <path class="cls-25" d="m1511.2,824.84c-10.76-57.8-30.18-113.8-57.74-166.08,0,0,0,0,0,0,0,0,0,0,0,0,4.42,19.74,8.03,39.63,10.84,59.68,4.46,31.6,6.85,63.45,7.16,95.36.03,3.68.03,7.36,0,11.04h39.74Z"/>
    <path class="cls-15" d="m1170.15,824.84c4.69-12.37,9.22-24.79,13.58-37.27h0s-260.1-136.31-260.1-136.31c-17.13,23.52-33.59,47.57-49.37,72.14-15.99,25.13-31.2,50.79-45.98,76.72h0c-4.59,8.22-9.2,16.44-13.74,24.72h355.61Z"/>
    <path class="cls-9" d="m1254.9,824.84l-26.58-13.93c-1.71,4.65-3.45,9.3-5.2,13.93h31.79Z"/>
    <path class="cls-18" d="m1420.75,824.84c-.05-3.38-.12-6.75-.22-10.13-.82-29.58-3.69-59.06-8.61-88.24-4.96-29.17-11.83-57.98-20.54-86.26-11.62-37.29-23.73-70.71-45.64-105.13-25.91-40.7-45.16-61.65-45.16-61.65l-.37-.29s0,.03,0,.04l-.03-.02c-.73,19.68-2.16,39.28-4.27,58.79-3.15,31.06-7.84,61.83-14.06,92.3h0c-6.09,30.45-13.42,60.54-22,90.26-4.47,15.52-9.2,30.94-14.17,46.27l122.23,64.06h52.84Z"/>
    <path class="cls-26" d="m430.7,824.84c3.57-9.97,7.32-19.87,11.3-29.69,8.15-20.04,17.03-39.71,26.63-59h0s0,0,0,0l-77.09-40.4c-18.26,41.45-31.61,84.78-39.87,129.09h79.04Z"/>
    <path class="cls-19" d="m350.16,1033.61c8.59,50.12,23.68,98.98,44.94,145.33,0,0,0,0,0,0,0,0,0,0,0,0-.35-2.85-.75-5.7-1.07-8.56-3.76-31.58-5.81-63.35-6.15-95.15-.1-13.87.21-27.74.9-41.62h-38.62Z"/>
    <path class="cls-12" d="m1149.36,1033.61l197.79,103.66c16.35-33.62,30.45-68.23,41.77-103.66h-239.56Z"/>
    <path class="cls-10" d="m1439.66,1033.61c-1.49,5.02-3.02,10.03-4.63,15.02-4.86,15.1-10.13,30-15.82,44.83s-11.86,29.36-18.36,43.77c-3.47,7.58-7.02,15.12-10.65,22.63h0s0,0,0,0l69.28,36.31c25.63-51.41,43.5-106.19,53.17-162.56h-72.99Z"/>
    <path class="cls-27" d="m549.07,1033.61l94.25,49.39c6.07-16.55,12.39-33.01,18.92-49.39h-113.17Z"/>
    <path class="cls-28" d="m716.48,1033.61c-1.19,3.02-2.38,6.04-3.56,9.07-8.28,21.33-16.14,42.82-23.59,64.45h0s0,0,0,0l252.88,132.53c13.55-18.41,26.74-37.11,39.57-56.08,8.34-12.36,16.6-24.79,24.61-37.38h0c8-12.6,15.87-25.29,23.6-38.07,11.87-19.67,23.41-39.55,34.63-59.63h0s0,0,0,0l-28.41-14.89h-319.73Z"/>
    <path class="cls-7" d="m1039.96,515.18c-21,20.67-41,42.38-60.24,64.84-8.14,9.45-16.1,19.07-23.88,28.86h0s0,0,0,0l244.37,128.06c3.62-11.96,7.01-23.98,10.18-36.05h0c7.51-28.61,14-57.44,19-86.44s8.51-58.18,10.61-87.36c1.12-16.45,1.72-32.88,1.79-49.31.02-5.47-.01-10.95-.1-16.42-.32-19.07-10.84-36.5-27.56-45.67l-.55-.3c-17.28-9.37-38.33-8.4-54.68,2.52-18.23,12.12-35.94,25.06-53.13,38.83-22.81,18.33-44.74,37.81-65.81,58.44Z"/>
    <path class="cls-5" d="m680.11,464.34c4.19-3.43,8.43-6.82,12.7-10.18,12.55-9.82,25.43-19.22,38.63-28.19,26.44-17.89,54.02-34.04,82.56-48.35,24.16-12.16,48.96-23,74.29-32.46,0,0,0,0,0,0,0,0,0,0,0,0-95.33,6.84-187.54,36.89-268.6,87.52h0s0,0,0,0l60.42,31.66Z"/>
    <path class="cls-13" d="m837.11,425.24c-26.8,12.55-52.68,26.96-77.47,43.13-10.55,6.81-20.88,13.96-31,21.44h0s0,0,0,0l181.75,95.19c9.77-12.81,19.77-25.47,30-38,19.58-23.91,40.15-47.05,61.71-69.42,21.56-22.37,44.19-43.73,67.9-64.06,15.84-13.71,32.22-26.83,49.15-39.37h0,0s-.39-.14-.39-.14c-26.26-5.09-53.04-7.04-79.76-5.79-41,2-80.07,12.56-119.24,24.82-28.22,8.91-55.83,19.67-82.65,32.2h0Z"/>
    <path class="cls-3" d="m493.12,689.73c4.1-7.26,8.28-14.47,12.54-21.64,8.15-13.55,16.66-26.89,25.55-40s18.17-25.95,27.86-38.52c9.65-12.59,19.78-24.81,30.12-36.87,15.33-17.84,31.57-34.9,48.72-51.17h0s0,0,0,0l-66.86-35c-63.97,49.41-117.15,111.4-156.27,182.14h0s0,0,0,0l78.34,41.06Z"/>
    <path class="cls-6" d="m625.79,1133.08s0,0,0,0l-182.93-95.87c-.05,3.06-.08,6.12-.09,9.17-.02,9.18.17,18.36.57,27.55,1.23,29.68,4.18,59.25,8.82,88.59,4.66,29.48,10.68,58.9,17.49,88.39,1.81,7.7,19.86,65.15,59.74,110.62,10.87,12.45,22.86,23.87,35.83,34.12.58-5.27,1.19-10.54,1.87-15.8,7.8-62.04,21.6-122.51,38.46-181.77h.02c6.31-21.82,13.05-43.49,20.22-65h0Zm-20.22,65h0s0,0,0,0Z"/>
    <polygon class="cls-24" points="605.57 1198.08 605.57 1198.08 605.57 1198.08 605.57 1198.08"/>
    <path class="cls-8" d="m873.86,1325.67c12.33-14.28,24.33-28.84,36-43.69h0s0,0,0,0l-237-124.18c-5.44,18.09-10.62,36.25-15.35,54.51h0c-15,57.38-26.09,115.69-31.29,173.91-.82,9.67-1.47,19.34-1.94,29-.04.82-.05,1.64-.04,2.45.23,12.19,6.86,23.46,17.57,29.55,16,9.05,32.48,17.36,49.44,24.93,11.7,5.18,25.29,3.53,35.41-4.29,7.41-5.69,14.75-11.52,22-17.5,44.92-37.41,86.56-79.71,125.2-124.69Z"/>
    <path class="cls-14" d="m1178.14,1363.35c20.88-18.15,40.56-37.63,58.91-58.32,32.6-37,60.94-78,85.59-121.25h0s0,0,0,0l-214.64-112.55c-11.53,20.96-23.4,41.73-35.61,62.32-15.67,26.3-31.89,52.3-48.64,78-11.53,17.62-23.37,35.04-35.53,52.27h0s0,0,0,0l189.92,99.53Z"/>
    <path class="cls-20" d="m1366.02,1206.46c-10.45,18.83-21.59,37.32-33.41,55.46h0s0,0,0,0h.02c-17.46,26.59-36.54,52.09-57.13,76.34-15.08,17.79-31.05,34.82-47.85,51h0s0,0,0,0l46.27,24.25c64.25-45.9,118.68-104.18,160.1-171.4h0s0,0,0,0l-68-35.65Z"/>
    <path class="cls-23" d="m1102.61,1419.46c10.38-6.53,20.54-13.37,30.47-20.51h0s0,0,0,0l-176.08-92.25c-13.6,18.12-27.57,35.99-41.92,53.6-39.14,47.59-81,93.35-127.6,135.09-2.89,2.61-5.8,5.2-8.73,7.77,0,0,0,0,0,0h0c17.16,4.58,91.19,20.62,163.31-4.63,28.59-10,55.77-22.97,82.66-35.91h.02c26.76-12.88,52.76-27.29,77.87-43.16Z"/>
  </g>
  <path id="ring-outer-upper" class="cls-11" d="m111.4,578.62c89.25-210.44,256.78-377.97,467.22-467.22,108.23-45.77,223.2-69,341.73-69s233.5,23.21,341.73,69c287.7,121.42,489.19,386.6,529.08,696.31.4,3.23,3.15,5.66,6.41,5.67,3.58,0,6.48-2.89,6.49-6.47,0-.27-.02-.55-.05-.82C1747.93,368,1373.69,29.41,920.35,29.41S92.77,368,36.68,806.09c-.44,3.56,2.08,6.8,5.64,7.24.27.03.53.05.8.05,3.26,0,6.01-2.43,6.42-5.67,10.05-78.83,30.86-155.92,61.86-229.09Z"/>
  <path id="ring-outer-lower" class="cls-16" d="m1729.3,1262.08c-89.23,210.46-256.76,377.99-467.22,467.22-108.23,45.78-223.2,69-341.73,69s-233.5-23.21-341.73-69c-286.74-121.03-487.92-384.9-528.72-693.45-.41-3.23-3.16-5.64-6.41-5.64-3.58,0-6.48,2.9-6.48,6.48,0,.28.02.56.05.83,57.36,436.68,430.94,773.78,883.29,773.78s825.93-337.1,883.3-773.78c.45-3.56-2.06-6.81-5.62-7.26-.27-.03-.55-.05-.82-.05-3.25,0-6,2.41-6.41,5.64-10.19,77.84-30.87,153.94-61.5,226.23h0Z"/>
  <path id="ring-inner-upper" class="cls-16" d="m337.43,674.11c135.84-321.94,506.95-472.8,828.89-336.96,201.38,84.97,344.64,267.87,378.9,483.75.35,2.27,2.3,3.94,4.59,3.94,2.58,0,4.68-2.09,4.69-4.67,0-.24-.02-.49-.06-.73-48.44-306.62-313.85-541.09-634.09-541.09s-585.68,234.47-634.09,541.09c-.4,2.55,1.35,4.95,3.9,5.34.24.04.48.06.73.06,2.3,0,4.25-1.67,4.6-3.94,7.94-50.46,22.02-99.75,41.94-146.79h0Z"/>
  <path id="ring-inner-lower" class="cls-11" d="m1503.27,1165.6c-135.89,321.94-507.04,472.75-828.97,336.86-196.61-82.99-338.14-259.51-376.41-469.46-.4-2.21-2.32-3.82-4.57-3.82-2.58,0-4.67,2.09-4.67,4.67,0,.27.02.54.07.81,54.34,299.52,316.44,526.67,631.63,526.67s577.29-227.15,631.63-526.67c.45-2.54-1.25-4.96-3.79-5.41-.27-.05-.54-.07-.81-.07-2.25,0-4.17,1.61-4.56,3.82-8.25,45.52-21.51,90-39.55,132.6h0Z"/>
  <path class="cls-11" d="m489.26,911.72c-1.48-.72-3.43-1.54-5.86-2.45-2.43-.91-5.19-1.78-8.26-2.6-3.3-.84-6.63-1.51-10-2-3.69-.57-7.41-.86-11.14-.87-3.04,0-5.63.09-7.77.28-1.82.15-3.63.39-5.42.74-1.19.22-2.36.58-3.47,1.06-.72.3-1.4.72-2,1.22-.4.34-.7.77-.88,1.26-.12.36-.19.75-.2,1.13.04,1.22.68,2.34,1.71,3,1.43,1,3,1.77,4.67,2.28,2.26.75,4.56,1.38,6.89,1.88,2.62.59,5.41,1.2,8.35,1.83s6,1.31,9.11,2,6.18,1.6,9.12,2.59c2.86.96,5.65,2.11,8.35,3.45,2.48,1.22,4.8,2.76,6.89,4.58,1.93,1.68,3.51,3.72,4.67,6,1.17,2.43,1.76,5.11,1.71,7.81.08,3.34-.6,6.65-2,9.68-1.28,2.63-3.09,4.96-5.33,6.84-2.31,1.91-4.92,3.42-7.72,4.47-2.98,1.13-6.06,2-9.2,2.59-3.22.61-6.47,1.01-9.74,1.2-3.29.19-6.41.29-9.37.28-7.21.05-14.42-.59-21.51-1.91-5.94-1.09-11.78-2.68-17.46-4.75v-18.61c5.6,3.04,11.59,5.32,17.8,6.78,7.01,1.67,14.19,2.49,21.39,2.45,3.68.06,7.36-.18,11-.71,2.28-.33,4.51-.94,6.64-1.83,1.28-.5,2.4-1.33,3.24-2.42.52-.73.82-1.6.86-2.5-.02-1.3-.65-2.52-1.71-3.28-1.41-1.07-2.99-1.9-4.67-2.45-2.26-.78-4.56-1.43-6.89-1.94-2.63-.58-5.41-1.17-8.35-1.76s-5.97-1.23-9.09-1.91c-3.11-.67-6.14-1.47-9.08-2.42-2.85-.89-5.64-1.98-8.35-3.25-2.48-1.14-4.8-2.62-6.89-4.38-1.93-1.63-3.51-3.63-4.67-5.87-1.18-2.4-1.77-5.05-1.71-7.72-.09-3.1.53-6.18,1.82-9,1.18-2.45,2.86-4.63,4.93-6.4,2.15-1.81,4.57-3.27,7.18-4.31,2.77-1.12,5.64-1.97,8.57-2.56,3.01-.61,6.05-1.02,9.11-1.25,3.08-.23,6-.34,8.78-.34,3.04,0,6.16.15,9.37.45,3.21.31,6.37.73,9.48,1.28s6.13,1.19,9,1.91,5.6,1.48,8.06,2.28l.04,18.17h0Zm30.11,56.22v-78.27h21.14v78.27h-21.14Zm148.77,0v-54.94l-29,55h-20.33l-29.06-55v55h-21.13v-78.33h28.71l31.67,59.25,31.62-59.25h28.59v78.27h-21.07Zm96.62,0v-78.27h21.13v78.27h-21.13Zm93.11-61.24v61.24h-21.13v-61.24h-33.22v-17h87.62v17h-33.27Zm176.32,58.96c-2.78.92-5.64,1.7-8.61,2.37-3.09.68-6.22,1.19-9.37,1.51-3.51.35-7.03.52-10.56.51-7.41.07-14.8-.79-22-2.56-6.2-1.48-12.07-4.1-17.32-7.72-4.75-3.33-8.64-7.74-11.33-12.88-5.39-11.42-5.39-24.64,0-36.06,2.7-5.12,6.57-9.51,11.31-12.83,5.25-3.62,11.12-6.24,17.32-7.72,7.2-1.77,14.59-2.63,22-2.56,3.53-.01,7.05.16,10.56.51,3.15.32,6.28.82,9.37,1.51,3,.66,5.83,1.45,8.61,2.36s5.52,1.94,8.26,3.08v19c-2.17-1.18-4.45-2.35-6.84-3.51-2.56-1.23-5.21-2.27-7.92-3.13-3.11-.98-6.29-1.75-9.51-2.28-3.86-.62-7.77-.91-11.68-.88-5.59-.16-11.16.52-16.55,2-3.84,1.08-7.42,2.94-10.51,5.47-2.49,2.09-4.39,4.79-5.53,7.83-1.06,2.93-1.6,6.02-1.59,9.14,0,2.08.24,4.15.7,6.18.46,2.03,1.23,3.97,2.28,5.76,1.12,1.87,2.52,3.56,4.16,5,1.9,1.64,4.06,2.97,6.38,3.93,2.87,1.2,5.86,2.07,8.92,2.6,3.88.66,7.82.98,11.76.94,3.91.03,7.81-.25,11.68-.83,3.22-.5,6.4-1.23,9.51-2.19,2.71-.85,5.36-1.89,7.92-3.11,2.39-1.16,4.67-2.34,6.84-3.56v19c-2.74,1.17-5.49,2.21-8.26,3.12h0Zm31.58,2.28v-78.27h21.14v61.13h57.14v17.14h-78.28Zm188.31-15.32c-2.14,3.67-5.13,6.78-8.71,9.06-4.46,2.83-9.36,4.9-14.5,6.12-13.39,3-27.29,3-40.68,0-5.16-1.21-10.08-3.28-14.55-6.12-3.59-2.28-6.58-5.39-8.72-9.06-1.91-3.35-2.91-7.14-2.91-11v-51.9h21.08v44.28c-.02,2.51.32,5.01,1,7.43.67,2.35,1.97,4.47,3.76,6.13,2.23,1.96,4.88,3.39,7.75,4.16,4.24,1.14,8.61,1.66,13,1.54,4.34.12,8.68-.4,12.87-1.54,2.86-.78,5.5-2.2,7.72-4.16,1.79-1.66,3.08-3.78,3.73-6.13.67-2.42,1.01-4.92,1-7.43v-44.33h21.08v51.9c0,3.87-1,7.68-2.92,11.05h0Zm119.72-6.27c.06,2.69-.35,5.37-1.2,7.92-.73,2.12-1.86,4.09-3.33,5.78-1.44,1.63-3.18,2.97-5.13,3.93-2.1,1.05-4.32,1.86-6.61,2.4-2.53.61-5.11,1.01-7.71,1.22-2.74.23-5.57.35-8.49.34h-56.8v-78.27h55.77c2.24,0,4.49.09,6.75.28,2.18.19,4.34.54,6.47,1.06,1.98.48,3.9,1.2,5.72,2.13,1.75.9,3.32,2.12,4.62,3.59,1.36,1.57,2.4,3.39,3.07,5.36.79,2.39,1.17,4.89,1.12,7.4,0,5.09-1.25,9.12-3.76,12.11s-6.46,4.97-11.85,5.95c3.32.18,6.6.77,9.77,1.74,2.44.74,4.7,1.98,6.63,3.65,1.71,1.53,3.01,3.47,3.76,5.64.84,2.5,1.25,5.13,1.2,7.77h0Zm-26.38-33.49c.02-.97-.12-1.94-.42-2.86-.33-.92-.9-1.74-1.65-2.37-.96-.76-2.07-1.33-3.25-1.65-1.71-.46-3.47-.67-5.24-.63h-31.16v14.7h31.16c1.76.04,3.53-.15,5.24-.57,1.18-.29,2.28-.81,3.25-1.54.76-.59,1.33-1.39,1.65-2.3.29-.9.43-1.84.42-2.78Zm4.9,31c.07-1.49-.25-2.97-.91-4.3-.65-1.12-1.65-2-2.85-2.5-1.59-.66-3.28-1.06-5-1.17-2.05-.19-4.5-.28-7.35-.29h-30.53v16.58h30.53c2.85,0,5.3-.09,7.35-.28,1.72-.11,3.41-.52,5-1.2,1.2-.52,2.19-1.41,2.85-2.54.66-1.32.97-2.79.91-4.26v-.04h0Z"/>
  <path class="cls-4" d="m134.98,909.37h211.98v39.15h-211.98v-39.15Zm1358.77,0h211.98v39.15h-211.98v-39.15Z"/>
  <path class="cls-4" d="m1376.9,622.14c-.54,15.96-.29,31.93-.09,47.9.13,10.47-3.58,10.84-13,6.04-28.04-14.25-53.39-19.08-84.12-28.11h0c-12.54-3.64-41.88-8.45-54.65-9.85-25.32-2.78-68.26-6.99-101.81-7.8-7.82-.19-9.11,3.22-9,9.09.41,17.28.5,31.09.71,48.39,0,18.22.03,36.44.08,54.66-.37,27.39-.73,54.77-1.09,82.15l-107.5.23c-.35-45.79-.69-91.58-1-137.36.18-16.9,0-30.29.7-47.17.31-7.85-2.91-10.06-11.26-10.19-31.33-.52-50,0-81.08,3.64-17.86,2.06-48.81,8.83-56.46,10.84-39.51,10.42-75.65,19.09-99,30.74-10.41,5.21-13.8,3.36-13.21-7.47-.06-12.42,0-24.68,0-37.03,0-18.33,0-18.58,20.51-18.56,167.43.15,572.64.08,599.68,0,8,0,11.87,1.73,11.59,9.87Zm-263.51,706.5v-293s-75.73-.08-107.62,0c-.33,35.24.32,70.49,0,105.73h.01s0,81.29,0,81.29c-.07,15.18.07,30.37,0,45.55.06,1.92-.06,3.84,0,5.75v48.35c.13,13.06-.1,25.55,0,39.06-.34,8.45,2.44,11.32,11,11.2,23.51-.31,77.34-.49,82.25-.49,12.88-.11,14.23-2.79,14.36-15.33.13-13.03-.24-18.73,0-28.11Zm-463.41-93c-.23-67.33-.46-134.67-.7-202h0c-32.14-.07-108.65.01-108.65.01v51.19c.64,92.61,1.88,181.36,0,274,0,5.31,4.09,11.42,9.45,11.81,6.72,0,78.67-.48,81.54,0,16.92,0,19.19-3.87,18.76-18.87-1.11-38.69-.3-77.43-.4-116.14Zm-9.01-623.41c-6.71,0-78.67.44-81.53,0-16.93,0-19.19,3.52-18.76,17.14,1.11,35.14.3,70.33.4,105.51.17,61.21.46,28.74.7,89.94h0c32.14.05,108.65,0,108.65,0v-46.5c-.65-84.17-1.88-71.2,0-155.35,0-4.83-4.1-10.37-9.46-10.73Z"/>
</svg>
