<svg xmlns="http://www.w3.org/2000/svg" viewBox="0 0 1840.7 1840.7">
	<defs>
		<linearGradient
			id="LinearGradientDark"
			x1="1442" y1="1228.22"
			x2="420.54" y2="638.48"
			gradientUnits="userSpaceOnUse">
			<stop offset="0" stop-color="#4b0000"/>
			<stop offset=".11" stop-color="#520101" stop-opacity=".77"/>
			<stop offset=".31" stop-color="#5e0303" stop-opacity=".44"/>
			<stop offset=".53" stop-color="#660505" stop-opacity=".19"/>
			<stop offset=".75" stop-color="#6a0606" stop-opacity=".05"/>
			<stop offset="1" stop-color="#6c0606" stop-opacity="0"/>
		</linearGradient>
		<style>
			.logo__dark-primary   { fill: #cf2528                  ; }
			.logo__dark-secondary { fill: #e05d5b                  ; }
			.logo__dark-text      { fill: #fff                     ; }
			.logo__dark-surface   { fill: #000                     ; }
			.logo__dark-gradient  { fill: url(#LinearGradientDark) ; }
		</style>
	</defs>
	<circle class="logo__dark-surface" cx="920.35" cy="920.35" r="920.35"/>
	<path class="logo__dark-gradient" d="m1281.85,624.25c-6.09,30.45-13.42,60.54-22,90.26-4.47,15.52-9.2,30.94-14.17,46.27l174.82,91.62c.39-12.56.39-25.12,0-37.67-.82-29.58-3.69-59.06-8.61-88.24-4.96-29.17-11.83-57.98-20.54-86.26-11.62-37.29-23.73-70.71-45.64-105.13-25.91-40.7-45.16-61.65-45.16-61.65l-.37-.29c-.73,19.68-2.16,39.28-4.27,58.79-3.15,31.06-7.84,61.83-14.06,92.3h0Zm189.61,189.55c.14,15.95-.26,31.89-1.19,47.8-.32,5.43-.7,10.85-1.13,16.27l51.32,26.89c-4.01-85.92-26.89-169.91-67-246,4.42,19.74,8.03,39.63,10.84,59.68,4.46,31.6,6.85,63.45,7.16,95.36Zm-273.87,74.48c-12,28.27-24.83,56.1-38.14,83.69-6.79,13.72-13.51,27.48-20.61,41-2.04,4-4.09,7.97-6.16,11.9l214.47,112.4c22.86-47,41.35-95.94,53.94-146.35,6.66-26.87,11.69-54.11,15.07-81.58l-187.84-98.43c-9.58,26.09-19.9,51.86-30.73,77.37h0Zm-125.2,245.27c-15.67,26.3-31.89,52.3-48.64,78-11.53,17.62-23.37,35.04-35.53,52.27l189.92,99.53c20.88-18.15,40.56-37.63,58.91-58.32,32.6-37,60.94-78,85.59-121.25l-214.64-112.55c-11.53,20.96-23.4,41.73-35.61,62.32Zm-566.73-465.46c8.15-13.55,16.66-26.89,25.55-40,8.89-13.11,18.17-25.95,27.86-38.52,9.65-12.59,19.78-24.81,30.12-36.87,15.33-17.84,31.57-34.9,48.72-51.17l-66.86-35c-63.97,49.41-117.15,111.4-156.27,182.14l78.34,41.06c4.1-7.26,8.28-14.47,12.54-21.64h0Zm187.15-213.93c12.55-9.82,25.43-19.22,38.63-28.19,26.44-17.89,54.02-34.04,82.56-48.35,24.16-12.16,48.96-23,74.29-32.46-95.33,6.84-187.54,36.89-268.6,87.52l60.42,31.66c4.19-3.43,8.43-6.82,12.7-10.18h0Zm144.3-28.92c-26.8,12.55-52.68,26.96-77.47,43.13-10.55,6.81-20.88,13.96-31,21.44l181.75,95.19c9.77-12.81,19.77-25.47,30-38,19.58-23.91,40.15-47.05,61.71-69.42,21.56-22.37,44.19-43.73,67.9-64.06,15.84-13.71,32.22-26.83,49.15-39.37l-.39-.14c-26.26-5.09-53.04-7.04-79.76-5.79-41,2-80.07,12.56-119.24,24.82-28.22,8.91-55.83,19.67-82.65,32.2Zm-73.3,391.22c7.11-13.55,14.59-26.91,22-40.3,15.11-26.64,30.69-53,47.11-79,14.82-23.42,30.19-46.52,46.12-69.29l-194.73-102c-20.67,18.41-40.2,38.05-58.5,58.81-34.29,39-64,82.11-89.66,127.63l221.37,116c2.1-3.96,4.18-7.91,6.29-11.85h0Zm64.47-16.34c-7.27,13-14.6,26-21.57,39.26-2.07,3.81-4.1,7.64-6.13,11.48l289.05,151.48c2-3.85,3.98-7.7,5.95-11.57,6.9-13.26,13.42-26.68,20-40.08,12.92-26.91,25.36-54,36.92-81.47,11.23-26.94,21.64-54.16,31.23-81.65l-260.1-136.31c-17.13,23.52-33.59,47.57-49.37,72.14-15.99,25.13-31.2,50.79-45.98,76.72Zm178.11,346.08c8-12.6,15.87-25.29,23.6-38.07,11.87-19.67,23.41-39.55,34.63-59.63l-287.76-150.8c-10.13,20.67-19.91,41.47-29.33,62.41-6.11,13.63-12.07,27.32-17.88,41.06-5.79,13.76-11.31,27.62-16.73,41.51-8.28,21.33-16.14,42.82-23.59,64.45l252.88,132.53c13.55-18.41,26.74-37.11,39.57-56.08,8.34-12.36,16.6-24.79,24.61-37.38h0Zm-348.88,66.11c-15,57.38-26.09,115.69-31.29,173.91-.82,9.67-1.47,19.34-1.94,29-.67,13.12,6.11,25.5,17.53,32,16,9.05,32.48,17.36,49.44,24.93,11.7,5.18,25.29,3.53,35.41-4.29,7.41-5.69,14.75-11.52,22-17.5,44.92-37.41,86.56-79.71,125.2-124.69,12.33-14.28,24.33-28.84,36-43.69l-237-124.18c-5.44,18.09-10.62,36.25-15.35,54.51h0Zm552.88-511.42c7.51-28.61,14-57.44,19-86.44s8.51-58.18,10.61-87.36c1.5-21.93,2.06-43.84,1.69-65.73-.32-19.07-10.84-36.5-27.56-45.67l-.55-.3c-17.28-9.37-38.33-8.4-54.68,2.52-18.23,12.12-35.94,25.06-53.13,38.83-22.81,18.33-44.74,37.81-65.81,58.44-21,20.67-41,42.38-60.24,64.84-8.14,9.45-16.1,19.07-23.88,28.86l244.37,128.06c3.62-11.96,7.01-23.98,10.18-36.05h0Zm-798.69,184.69c8.24-30.73,18.36-60.94,30.3-90.43,8.15-20.04,17.03-39.71,26.63-59l-77.09-40.4c-31.84,72.29-48.78,150.26-49.8,229.25l55.27,29c3.74-23.04,8.64-45.88,14.69-68.42h0Zm290.79,54.12c9.96-21.76,20.29-43.34,31-64.73l-221.55-116.11c-21.57,44.9-39.11,91.5-51,139.38-6.57,26.87-11.39,54.14-14.43,81.63l196.81,103.13c7.26-19.79,14.85-39.45,22.76-59,11.59-28.34,23.72-56.44,36.41-84.3Zm760.08-6c-3.67,23.29-8.43,46.4-14.36,69.18-4,15.36-8.32,30.65-13.18,45.75s-10.13,30-15.82,44.83-11.86,29.36-18.36,43.77c-3.47,7.58-7.02,15.12-10.65,22.63l69.28,36.31c36.08-72.37,56.8-151.41,60.87-232.17l-57.78-30.3Zm-857,264.38c6.31-21.82,13.05-43.49,20.22-65l-182.93-95.87c-.21,12.23-.05,24.47.48,36.72,1.23,29.68,4.18,59.25,8.82,88.59,4.66,29.48,10.68,58.9,17.49,88.39,1.81,7.7,19.86,65.15,59.74,110.62,10.87,12.45,22.86,23.87,35.83,34.12.58-5.27,1.19-10.54,1.87-15.8,7.8-62.04,21.6-122.51,38.46-181.77h.02Zm566.23,239.44c-12.59,9.85-25.48,19.26-38.69,28.25-22.52,15.38-45.87,29.4-69.59,42.48,55.92-12.8,109.66-33.75,159.5-62.16l-37.4-19.6c-4.59,3.72-9.2,7.4-13.84,11.03h.02Zm-147.06,25.1c26.76-12.88,52.76-27.29,77.87-43.16,10.38-6.53,20.54-13.37,30.47-20.51l-176.08-92.25c-13.6,18.12-27.57,35.99-41.92,53.6-39.14,47.59-81,93.35-127.6,135.09-2.89,2.61-5.8,5.2-8.73,7.77,17.16,4.58,91.19,20.62,163.31-4.63,28.59-10,55.77-22.97,82.66-35.91h.02Zm307.89-200.7c-17.46,26.59-36.54,52.09-57.13,76.34-15.08,17.79-31.05,34.82-47.85,51l46.27,24.25c64.25-45.9,118.68-104.18,160.1-171.4l-68-35.65c-10.45,18.83-21.59,37.32-33.41,55.46h.02Zm-944.75-186.69c-.12-15.96.28-31.92,1.21-47.89.33-5.89.74-11.77,1.21-17.64l-46.36-24.3c5.82,66.97,23.13,132.44,51.16,193.54-.35-2.85-.75-5.7-1.07-8.56-3.76-31.58-5.81-63.35-6.15-95.15h0Zm894-451c-6.09,30.45-13.42,60.54-22,90.26-4.47,15.52-9.2,30.94-14.17,46.27l174.82,91.62c.39-12.56.39-25.12,0-37.67-.82-29.58-3.69-59.06-8.61-88.24-4.96-29.17-11.83-57.98-20.54-86.26-11.62-37.29-23.73-70.71-45.64-105.13-25.91-40.7-45.16-61.65-45.16-61.65l-.37-.29c-.73,19.68-2.16,39.28-4.27,58.79-3.17,31.07-7.87,61.85-14.09,92.32l.03-.02Zm189.58,189.57c.14,15.95-.26,31.89-1.19,47.8-.32,5.43-.7,10.85-1.13,16.27l51.32,26.89c-4.01-85.92-26.89-169.91-67-246,4.42,19.74,8.03,39.63,10.84,59.68,4.46,31.6,6.85,63.45,7.16,95.36Zm-273.87,74.48c-12,28.27-24.83,56.1-38.14,83.69-6.79,13.72-13.51,27.48-20.61,41-2.04,4-4.09,7.97-6.16,11.9l214.47,112.4c22.86-47,41.35-95.94,53.94-146.35,6.66-26.87,11.69-54.11,15.07-81.58l-187.84-98.43c-9.58,26.09-19.9,51.86-30.73,77.37h0Zm-125.2,245.27c-15.67,26.3-31.89,52.3-48.64,78-11.53,17.62-23.37,35.04-35.53,52.27l189.92,99.53c20.88-18.15,40.56-37.63,58.91-58.32,32.6-37,60.94-78,85.59-121.25l-214.64-112.55c-11.53,20.96-23.4,41.73-35.61,62.32Zm-566.73-465.46c8.15-13.55,16.66-26.89,25.55-40,8.89-13.11,18.17-25.95,27.86-38.52,9.65-12.59,19.78-24.81,30.12-36.87,15.33-17.84,31.57-34.9,48.72-51.17l-66.86-35c-63.97,49.41-117.15,111.4-156.27,182.14l78.34,41.06c4.1-7.26,8.28-14.47,12.54-21.64h0Zm187.15-213.93c12.55-9.82,25.43-19.22,38.63-28.19,26.44-17.89,54.02-34.04,82.56-48.35,24.16-12.16,48.96-23,74.29-32.46-95.33,6.84-187.54,36.89-268.6,87.52l60.42,31.66c4.19-3.43,8.43-6.82,12.7-10.18h0Zm144.3-28.92c-26.8,12.55-52.68,26.96-77.47,43.13-10.55,6.81-20.88,13.96-31,21.44l181.75,95.19c9.77-12.81,19.77-25.47,30-38,19.58-23.91,40.15-47.05,61.71-69.42,21.56-22.37,44.19-43.73,67.9-64.06,15.84-13.71,32.22-26.83,49.15-39.37l-.39-.14c-26.26-5.09-53.04-7.04-79.76-5.79-41,2-80.07,12.56-119.24,24.82-28.22,8.91-55.83,19.67-82.65,32.2Zm-73.3,391.22c7.11-13.55,14.59-26.91,22-40.3,15.11-26.64,30.69-53,47.11-79,14.82-23.42,30.19-46.52,46.12-69.29l-194.73-102c-20.67,18.41-40.2,38.05-58.5,58.81-34.29,39-64,82.11-89.66,127.63l221.37,116c2.1-3.96,4.18-7.91,6.29-11.85h0Zm64.47-16.34c-7.27,13-14.6,26-21.57,39.26-2.07,3.81-4.1,7.64-6.13,11.48l289.05,151.48c2-3.85,3.98-7.7,5.95-11.57,6.9-13.26,13.42-26.68,20-40.08,12.92-26.91,25.36-54,36.92-81.47,11.23-26.94,21.64-54.16,31.23-81.65l-260.1-136.31c-17.13,23.52-33.59,47.57-49.37,72.14-15.99,25.13-31.2,50.79-45.98,76.72Zm178.11,346.08c8-12.6,15.87-25.29,23.6-38.07,11.87-19.67,23.41-39.55,34.63-59.63l-287.76-150.8c-10.13,20.67-19.91,41.47-29.33,62.41-6.11,13.63-12.07,27.32-17.88,41.06-5.79,13.76-11.31,27.62-16.73,41.51-8.28,21.33-16.14,42.82-23.59,64.45l252.88,132.53c13.55-18.41,26.74-37.11,39.57-56.08,8.34-12.36,16.6-24.79,24.61-37.38h0Zm-348.88,66.11c-15,57.38-26.09,115.69-31.29,173.91-.82,9.67-1.47,19.34-1.94,29-.67,13.12,6.11,25.5,17.53,32,16,9.05,32.48,17.36,49.44,24.93,11.7,5.18,25.29,3.53,35.41-4.29,7.41-5.69,14.75-11.52,22-17.5,44.92-37.41,86.56-79.71,125.2-124.69,12.33-14.28,24.33-28.84,36-43.69l-237-124.18c-5.44,18.09-10.62,36.25-15.35,54.51h0Zm552.88-511.42c7.51-28.61,14-57.44,19-86.44s8.51-58.18,10.61-87.36c1.5-21.93,2.06-43.84,1.69-65.73-.32-19.07-10.84-36.5-27.56-45.67l-.55-.3c-17.28-9.37-38.33-8.4-54.68,2.52-18.23,12.12-35.94,25.06-53.13,38.83-22.81,18.33-44.74,37.81-65.81,58.44-21,20.67-41,42.38-60.24,64.84-8.14,9.45-16.1,19.07-23.88,28.86l244.37,128.06c3.62-11.96,7.01-23.98,10.18-36.05h0Zm-798.69,184.69c8.24-30.73,18.36-60.94,30.3-90.43,8.15-20.04,17.03-39.71,26.63-59l-77.09-40.4c-31.84,72.29-48.78,150.26-49.8,229.25l55.27,29c3.74-23.04,8.64-45.88,14.69-68.42h0Zm290.79,54.12c9.96-21.76,20.29-43.34,31-64.73l-221.55-116.11c-21.57,44.9-39.11,91.5-51,139.38-6.57,26.87-11.39,54.14-14.43,81.63l196.81,103.13c7.26-19.79,14.85-39.45,22.76-59,11.59-28.34,23.72-56.44,36.41-84.3Zm760.08-6c-3.67,23.29-8.43,46.4-14.36,69.18-4,15.36-8.32,30.65-13.18,45.75s-10.13,30-15.82,44.83-11.86,29.36-18.36,43.77c-3.47,7.58-7.02,15.12-10.65,22.63l69.28,36.31c36.08-72.37,56.8-151.41,60.87-232.17l-57.78-30.3Zm-857,264.38c6.31-21.82,13.05-43.49,20.22-65l-182.93-95.87c-.21,12.23-.05,24.47.48,36.72,1.23,29.68,4.18,59.25,8.82,88.59,4.66,29.48,10.68,58.9,17.49,88.39,1.81,7.7,19.86,65.15,59.74,110.62,10.87,12.45,22.86,23.87,35.83,34.12.58-5.27,1.19-10.54,1.87-15.8,7.8-62.04,21.6-122.51,38.46-181.77h.02Zm566.23,239.44c-12.59,9.85-25.48,19.26-38.69,28.25-22.52,15.38-45.87,29.4-69.59,42.48,55.92-12.8,109.66-33.75,159.5-62.16l-37.4-19.6c-4.59,3.72-9.2,7.4-13.84,11.03h.02Zm-147.06,25.1c26.76-12.88,52.76-27.29,77.87-43.16,10.38-6.53,20.54-13.37,30.47-20.51l-176.08-92.25c-13.6,18.12-27.57,35.99-41.92,53.6-39.14,47.59-81,93.35-127.6,135.09-2.89,2.61-5.8,5.2-8.73,7.77,17.16,4.58,91.19,20.62,163.31-4.63,28.59-10,55.77-22.97,82.66-35.91h.02Zm307.89-200.7c-17.46,26.59-36.54,52.09-57.13,76.34-15.08,17.79-31.05,34.82-47.85,51l46.27,24.25c64.25-45.9,118.68-104.18,160.1-171.4l-68-35.65c-10.45,18.83-21.59,37.32-33.41,55.46h.02Zm-944.75-186.69c-.12-15.96.28-31.92,1.21-47.89.33-5.89.74-11.77,1.21-17.64l-46.36-24.3c5.82,66.97,23.13,132.44,51.16,193.54-.35-2.85-.75-5.7-1.07-8.56-3.76-31.58-5.81-63.35-6.15-95.15h0Z"/>
	<path class="logo__dark-text" d="m111.4,578.62c89.25-210.44,256.78-377.97,467.22-467.22,108.23-45.77,223.2-69,341.73-69s233.5,23.21,341.73,69c287.7,121.42,489.19,386.6,529.08,696.31.4,3.23,3.15,5.66,6.41,5.67,3.58,0,6.48-2.89,6.49-6.47,0-.27-.02-.55-.05-.82C1747.93,368,1373.69,29.41,920.35,29.41S92.77,368,36.68,806.09c-.44,3.56,2.08,6.8,5.64,7.24.27.03.53.05.8.05,3.26,0,6.01-2.43,6.42-5.67,10.05-78.83,30.86-155.92,61.86-229.09Z"/>
	<path class="logo__dark-text" d="m1503.27,1166.6c-135.89,321.94-507.04,472.75-828.97,336.86-196.61-82.99-338.14-259.51-376.41-469.46-.4-2.21-2.32-3.82-4.57-3.82-2.58,0-4.67,2.09-4.67,4.67,0,.27.02.54.07.81,54.34,299.52,316.44,526.67,631.63,526.67s577.29-227.15,631.63-526.67c.45-2.54-1.25-4.96-3.79-5.41-.27-.05-.54-.07-.81-.07-2.25,0-4.17,1.61-4.56,3.82-8.25,45.52-21.51,90-39.55,132.6h0Z"/>
	<path class="logo__dark-secondary" d="m1729.3,1262.08c-89.23,210.46-256.76,377.99-467.22,467.22-108.23,45.78-223.2,69-341.73,69s-233.5-23.21-341.73-69c-286.74-121.03-487.92-384.9-528.72-693.45-.41-3.23-3.16-5.64-6.41-5.64-3.58,0-6.48,2.9-6.48,6.48,0,.28.02.56.05.83,57.36,436.68,430.94,773.78,883.29,773.78s825.93-337.1,883.3-773.78c.45-3.56-2.06-6.81-5.62-7.26-.27-.03-.55-.05-.82-.05-3.25,0-6,2.41-6.41,5.64-10.19,77.84-30.87,153.94-61.5,226.23h0Z"/>
	<path class="logo__dark-secondary" d="m337.43,674.11c135.84-321.94,506.95-472.8,828.89-336.96,201.38,84.97,344.64,267.87,378.9,483.75.35,2.27,2.3,3.94,4.59,3.94,2.58,0,4.68-2.09,4.69-4.67,0-.24-.02-.49-.06-.73-48.44-306.62-313.85-541.09-634.09-541.09s-585.68,234.47-634.09,541.09c-.4,2.55,1.35,4.95,3.9,5.34.24.04.48.06.73.06,2.3,0,4.25-1.67,4.6-3.94,7.94-50.46,22.02-99.75,41.94-146.79h0Z"/>
	<path class="logo__dark-primary" d="m1279.69,651.53c-12.54-4-41.88-9.29-54.65-10.83-25.32-3.06-68.26-7.69-101.81-8.58-7.82-.21-9.11,3.54-9,10,.41,19,.5,34.19.71,53.22,0,20.04.03,40.08.08,60.11-.37,30.12-.73,60.24-1.09,90.35l-107.5.25c-.35-50.36-.69-100.72-1-151.07.18-18.59,0-33.31.7-51.88.31-8.63-2.91-11.06-11.26-11.21-31.33-.57-50,0-81.08,4-17.86,2.27-48.81,9.71-56.46,11.92-39.51,11.46-75.65,21-99,33.81-10.41,5.73-13.8,3.69-13.21-8.22-.06-13.66,0-27.14,0-40.72,0-20.16,0-20.43,20.51-20.41,167.43.16,572.64.09,599.68,0,8,0,11.87,1.9,11.59,10.85-.54,17.55-.29,35.12-.09,52.68.13,11.51-3.58,11.92-13,6.64-28.04-15.67-53.39-20.98-84.12-30.91h0Zm-273.92,487.84c.32-35.24-.33-70.49,0-105.73,31.89-.08,107.62,0,107.62,0v293c-.24,9.38.13,15.08,0,28.11-.13,12.54-1.48,15.22-14.36,15.33-4.91,0-58.74.18-82.25.49-8.56.12-11.34-2.75-11-11.2-.1-13.51.13-26,0-39.06v-48.35c-.06-1.91.06-3.83,0-5.75.07-15.18-.07-30.37,0-45.55v-81.29Zm-356.49-105.73c.24,67.33.47,134.67.7,202,.1,38.71-.71,77.45.4,116.14.43,15-1.84,18.87-18.76,18.87-2.87-.48-74.82,0-81.54,0-5.36-.39-9.45-6.5-9.45-11.81,1.88-92.64.64-181.39,0-274v-51.19s76.51-.08,108.65-.01h0Z"/>
	<path class="logo__dark-primary" d="m541.78,846.24c-.24-67.36-.53-31.62-.7-99-.1-38.72.71-77.46-.4-116.14-.43-15,1.83-18.87,18.76-18.87,2.86.48,74.82,0,81.53,0,5.36.39,9.46,6.49,9.46,11.81-1.88,92.63-.65,78.35,0,171v51.19s-76.51.07-108.65.01h0Z"/>
	<path class="logo__dark-surface" d="m1657.93,824.84h-102.66c.67,4.45,1.28,8.92,1.84,13.4.32,2.6-1.49,4.97-4.05,5.3-.19.02-.38.04-.58.04-2.35,0-4.33-1.78-4.62-4.15-.62-4.88-1.29-9.74-2-14.59H294.88c-.72,4.85-1.41,9.71-2,14.59-.29,2.37-2.27,4.15-4.62,4.15-2.58,0-4.67-2.12-4.68-4.74,0-.2.01-.4.04-.6.56-4.48,1.19-8.95,1.84-13.4h-44.46v208.77h46.78c-1.45-8.57-2.77-17.18-3.89-25.85-.33-2.6,1.47-4.97,4.02-5.31,2.55-.34,4.89,1.5,5.23,4.09,1.17,9.07,2.53,18.09,4.1,27.07h1246.26c1.54-8.99,2.9-18.01,4.09-27.07.29-2.37,2.27-4.14,4.62-4.14,2.58,0,4.67,2.13,4.67,4.75,0,.2-.01.41-.04.61-1.12,8.67-2.44,17.28-3.89,25.85h105l-.02-208.77Z"/>
	<path class="logo__dark-surface" d="m288.23,843.27c2.35,0,4.33-1.75,4.62-4.08.61-4.8,1.3-9.58,2-14.35h-9.45c-.65,4.38-1.28,8.77-1.84,13.18-.32,2.56,1.49,4.89,4.05,5.21.2.03.41.04.62.04Zm1259.62-4.08c.29,2.33,2.27,4.08,4.62,4.08,2.58,0,4.67-2.09,4.67-4.67,0-.19-.01-.39-.04-.58-.56-4.41-1.17-8.81-1.84-13.18h-9.44c.73,4.77,1.4,9.56,2.03,14.35h0Zm4.36,160.32c-2.35,0-4.33,1.74-4.62,4.07-1.17,8.92-2.53,17.8-4.09,26.63h9.5c1.45-8.43,2.77-16.9,3.89-25.43.33-2.56-1.47-4.9-4.03-5.23-.22-.03-.43-.04-.65-.04h0Zm-1259.1,4.07c-.33-2.55-2.67-4.36-5.23-4.03-2.55.33-4.36,2.67-4.02,5.23,1.12,8.53,2.44,17,3.89,25.43h9.46c-1.55-8.81-2.91-17.68-4.1-26.63h0Z"/>
	<path class="logo__dark-text" d="m489.26,911.72c-1.48-.72-3.43-1.54-5.86-2.45-2.43-.91-5.19-1.78-8.26-2.6-3.3-.84-6.63-1.51-10-2-3.69-.57-7.41-.86-11.14-.87-3.04,0-5.63.09-7.77.28-1.82.15-3.63.39-5.42.74-1.19.22-2.36.58-3.47,1.06-.72.3-1.4.72-2,1.22-.4.34-.7.77-.88,1.26-.12.36-.19.75-.2,1.13.04,1.22.68,2.34,1.71,3,1.43,1,3,1.77,4.67,2.28,2.26.75,4.56,1.38,6.89,1.88,2.62.59,5.41,1.2,8.35,1.83s6,1.31,9.11,2,6.18,1.6,9.12,2.59c2.86.96,5.65,2.11,8.35,3.45,2.48,1.22,4.8,2.76,6.89,4.58,1.93,1.68,3.51,3.72,4.67,6,1.17,2.43,1.76,5.11,1.71,7.81.08,3.34-.6,6.65-2,9.68-1.28,2.63-3.09,4.96-5.33,6.84-2.31,1.91-4.92,3.42-7.72,4.47-2.98,1.13-6.06,2-9.2,2.59-3.22.61-6.47,1.01-9.74,1.2-3.29.19-6.41.29-9.37.28-7.21.05-14.42-.59-21.51-1.91-5.94-1.09-11.78-2.68-17.46-4.75v-18.61c5.6,3.04,11.59,5.32,17.8,6.78,7.01,1.67,14.19,2.49,21.39,2.45,3.68.06,7.36-.18,11-.71,2.28-.33,4.51-.94,6.64-1.83,1.28-.5,2.4-1.33,3.24-2.42.52-.73.82-1.6.86-2.5-.02-1.3-.65-2.52-1.71-3.28-1.41-1.07-2.99-1.9-4.67-2.45-2.26-.78-4.56-1.43-6.89-1.94-2.63-.58-5.41-1.17-8.35-1.76-2.94-.59-5.97-1.23-9.09-1.91-3.11-.67-6.14-1.47-9.08-2.42-2.85-.89-5.64-1.98-8.35-3.25-2.48-1.14-4.8-2.62-6.89-4.38-1.93-1.63-3.51-3.63-4.67-5.87-1.18-2.4-1.77-5.05-1.71-7.72-.09-3.1.53-6.18,1.82-9,1.18-2.45,2.86-4.63,4.93-6.4,2.15-1.81,4.57-3.27,7.18-4.31,2.77-1.12,5.64-1.97,8.57-2.56,3.01-.61,6.05-1.02,9.11-1.25,3.08-.23,6-.34,8.78-.34,3.04,0,6.16.15,9.37.45,3.21.31,6.37.73,9.48,1.28s6.13,1.19,9,1.91,5.6,1.48,8.06,2.28l.04,18.17Zm30.11,56.22v-78.27h21.14v78.27h-21.14Zm148.77,0v-54.94l-29,55h-20.33l-29.06-55v55h-21.13v-78.33h28.71l31.67,59.25,31.62-59.25h28.59v78.27h-21.07Zm96.62,0v-78.27h21.13v78.27h-21.13Zm93.11-61.24v61.24h-21.13v-61.24h-33.22v-17h87.62v17h-33.27Zm176.32,58.96c-2.78.92-5.64,1.7-8.61,2.37-3.09.68-6.22,1.19-9.37,1.51-3.51.35-7.03.52-10.56.51-7.41.07-14.8-.79-22-2.56-6.2-1.48-12.07-4.1-17.32-7.72-4.75-3.33-8.64-7.74-11.33-12.88-5.39-11.42-5.39-24.64,0-36.06,2.7-5.12,6.57-9.51,11.31-12.83,5.25-3.62,11.12-6.24,17.32-7.72,7.2-1.77,14.59-2.63,22-2.56,3.53-.01,7.05.16,10.56.51,3.15.32,6.28.82,9.37,1.51,3,.66,5.83,1.45,8.61,2.36s5.52,1.94,8.26,3.08v19c-2.17-1.18-4.45-2.35-6.84-3.51-2.56-1.23-5.21-2.27-7.92-3.13-3.11-.98-6.29-1.75-9.51-2.28-3.86-.62-7.77-.91-11.68-.88-5.59-.16-11.16.52-16.55,2-3.84,1.08-7.42,2.94-10.51,5.47-2.49,2.09-4.39,4.79-5.53,7.83-1.06,2.93-1.6,6.02-1.59,9.14,0,2.08.24,4.15.7,6.18.46,2.03,1.23,3.97,2.28,5.76,1.12,1.87,2.52,3.56,4.16,5,1.9,1.64,4.06,2.97,6.38,3.93,2.87,1.2,5.86,2.07,8.92,2.6,3.88.66,7.82.98,11.76.94,3.91.03,7.81-.25,11.68-.83,3.22-.5,6.4-1.23,9.51-2.19,2.71-.85,5.36-1.89,7.92-3.11,2.39-1.16,4.67-2.34,6.84-3.56v19c-2.74,1.17-5.49,2.21-8.26,3.12Zm31.58,2.28v-78.27h21.14v61.13h57.14v17.14h-78.28Zm188.31-15.32c-2.14,3.67-5.13,6.78-8.71,9.06-4.46,2.83-9.36,4.9-14.5,6.12-13.39,3-27.29,3-40.68,0-5.16-1.21-10.08-3.28-14.55-6.12-3.59-2.28-6.58-5.39-8.72-9.06-1.91-3.35-2.91-7.14-2.91-11v-51.9h21.08v44.28c-.02,2.51.32,5.01,1,7.43.67,2.35,1.97,4.47,3.76,6.13,2.23,1.96,4.88,3.39,7.75,4.16,4.24,1.14,8.61,1.66,13,1.54,4.34.12,8.68-.4,12.87-1.54,2.86-.78,5.5-2.2,7.72-4.16,1.79-1.66,3.08-3.78,3.73-6.13.67-2.42,1.01-4.92,1-7.43v-44.33h21.08v51.9c0,3.87-1,7.68-2.92,11.05Zm119.72-6.27c.06,2.69-.35,5.37-1.2,7.92-.73,2.12-1.86,4.09-3.33,5.78-1.44,1.63-3.18,2.97-5.13,3.93-2.1,1.05-4.32,1.86-6.61,2.4-2.53.61-5.11,1.01-7.71,1.22-2.74.23-5.57.35-8.49.34h-56.8v-78.27h55.77c2.24,0,4.49.09,6.75.28,2.18.19,4.34.54,6.47,1.06,1.98.48,3.9,1.2,5.72,2.13,1.75.9,3.32,2.12,4.62,3.59,1.36,1.57,2.4,3.39,3.07,5.36.79,2.39,1.17,4.89,1.12,7.4,0,5.09-1.25,9.12-3.76,12.11-2.51,2.99-6.46,4.97-11.85,5.95,3.32.18,6.6.77,9.77,1.74,2.44.74,4.7,1.98,6.63,3.65,1.71,1.53,3.01,3.47,3.76,5.64.84,2.5,1.25,5.13,1.2,7.77h0Zm-26.38-33.49c.02-.97-.12-1.94-.42-2.86-.33-.92-.9-1.74-1.65-2.37-.96-.76-2.07-1.33-3.25-1.65-1.71-.46-3.47-.67-5.24-.63h-31.16v14.7h31.16c1.76.04,3.53-.15,5.24-.57,1.18-.29,2.28-.81,3.25-1.54.76-.59,1.33-1.39,1.65-2.3.29-.9.43-1.84.42-2.78Zm4.9,31c.07-1.49-.25-2.97-.91-4.3-.65-1.12-1.65-2-2.85-2.5-1.59-.66-3.28-1.06-5-1.17-2.05-.19-4.5-.28-7.35-.29h-30.53v16.58h30.53c2.85,0,5.3-.09,7.35-.28,1.72-.11,3.41-.52,5-1.2,1.2-.52,2.19-1.41,2.85-2.54.66-1.32.97-2.79.91-4.26v-.04Z"/>
	<path class="logo__dark-primary" d="m134.98,909.37h211.98v39.15h-211.98v-39.15Zm1358.77,0h211.98v39.15h-211.98v-39.15Z"/>
</svg>
