<?xml version="1.0" encoding="iso-8859-1"?>
<!-- Generator: Adobe Illustrator 19.0.0, SVG Export Plug-In . SVG Version: 6.00 Build 0)  -->
<svg version="1.1" id="Layer_1" xmlns="http://www.w3.org/2000/svg" xmlns:xlink="http://www.w3.org/1999/xlink" x="0px" y="0px"
	 viewBox="0 0 488.073 488.073" style="enable-background:new 0 0 488.073 488.073;" xml:space="preserve">
<g>
	<g>
		<path id="XMLID_275_" style="fill:#A7A9AC;" d="M449.074,209.84h-103.1l-55.4,53v-53h-23.5c-16.5,0-30-13.5-30-30v-111
			c0-16.5,13.5-30,30-30h182c16.5,0,30,13.5,30,30v111.1C479.074,196.44,465.574,209.84,449.074,209.84z"/>
		<path d="M78.674,418.54c0.4,0,0.9,0,1.3-0.1l35.8-5.3v36.1c0,5,4.1,9.1,9.1,9.1h189.4c5,0,9.1-4.1,9.1-9.1v-128.4
			c16-15.4,28.6-33.4,37.6-53.7c2-4.6,0-9.9-4.6-12c-4.6-2-9.9,0-12,4.6c-8.5,19.2-20.7,36.1-36.2,50.4c-1.9,1.7-2.9,4.1-2.9,6.7
			v123.2h-171.3v-37.5c0-2.6-1.2-5.1-3.1-6.9c-2-1.7-4.6-2.5-7.2-2.1l-45.6,6.9c-13.3-0.3-24-11.2-24-24.6v-59.2
			c0-5-4.1-9.1-9.1-9.1h-15.3c-5.2,0-9.1-1.5-10.6-4c-1.5-2.6-1.1-6.7,1.4-11.3l32.6-62.3c0.7-1.3,1-2.7,1-4.2v-26.6
			c0-58.5,34.3-112.2,87.4-136.9c18.2-8.6,37.6-13.4,57.8-14.3c5-0.2,8.9-4.5,8.7-9.5s-4.4-8.9-9.5-8.7c-22.6,1-44.4,6.4-64.7,16
			c-59.5,27.6-97.9,87.8-97.9,153.3v24.4l-31.6,60.3c-5.4,10.4-5.7,21-0.8,29.1s14.4,12.8,26.2,12.8h6.3v50.2
			C35.874,399.44,55.074,418.54,78.674,418.54z"/>
		<path d="M286.974,271.24c1.1,0.5,2.4,0.7,3.6,0.7c2.3,0,4.6-0.9,6.3-2.5l52.8-50.5h99.4c21.5,0,39-17.5,39-39V68.84
			c0-21.5-17.5-39-39-39h-182c-21.5,0-39,17.5-39,39v111.1c0,21.5,17.5,39,39,39h14.4v44
			C281.474,266.54,283.674,269.84,286.974,271.24z M267.074,200.84c-11.5,0-20.9-9.4-20.9-20.9V68.84c0-11.5,9.4-20.9,20.9-20.9h182
			c11.5,0,20.9,9.4,20.9,20.9v111.1c0,11.5-9.4,20.9-20.9,20.9h-103.1c-2.3,0-4.6,0.9-6.3,2.5l-40.1,38.4v-31.8c0-5-4.1-9.1-9.1-9.1
			L267.074,200.84L267.074,200.84z"/>
		<path d="M358.074,137.04c2.4,0,4.7-1,6.4-2.7c1.7-1.7,2.7-4,2.7-6.4c0-2.4-1-4.7-2.7-6.4s-4-2.6-6.4-2.6s-4.7,1-6.4,2.6
			c-1.7,1.7-2.7,4-2.7,6.4c0,2.4,1,4.7,2.7,6.4C353.374,136.14,355.674,137.04,358.074,137.04z"/>
		<path d="M391.874,137.04c2.4,0,4.7-1,6.4-2.7c1.7-1.7,2.6-4,2.6-6.4c0-2.4-1-4.7-2.7-6.4s-4-2.6-6.4-2.6s-4.7,1-6.4,2.6
			c-1.7,1.7-2.7,4-2.7,6.4c0,2.4,1,4.7,2.7,6.4C387.074,136.14,389.474,137.04,391.874,137.04z"/>
		<path d="M324.374,137.04c2.4,0,4.7-1,6.4-2.7c1.7-1.7,2.7-4,2.7-6.4c0-2.4-1-4.7-2.7-6.4s-4-2.6-6.4-2.6s-4.7,1-6.4,2.6
			c-1.7,1.7-2.7,4-2.7,6.4c0,2.4,1,4.7,2.7,6.4C319.674,136.14,321.974,137.04,324.374,137.04z"/>
	</g>
</g>
<g>
</g>
<g>
</g>
<g>
</g>
<g>
</g>
<g>
</g>
<g>
</g>
<g>
</g>
<g>
</g>
<g>
</g>
<g>
</g>
<g>
</g>
<g>
</g>
<g>
</g>
<g>
</g>
<g>
</g>
</svg>
